<?xml version="1.0" standalone="no"?>
<!DOCTYPE svg PUBLIC "-//W3C//DTD SVG 20010904//EN"
 "http://www.w3.org/TR/2001/REC-SVG-20010904/DTD/svg10.dtd">
<svg version="1.0" xmlns="http://www.w3.org/2000/svg"
 width="1003.000000pt" height="1003.000000pt" viewBox="0 0 1003.000000 1003.000000"
 preserveAspectRatio="xMidYMid meet">
<metadata>
Created by potrace 1.16, written by Peter Selinger 2001-2019
</metadata>
<g transform="translate(0.000000,1003.000000) scale(0.100000,-0.100000)"
fill="#000000" stroke="none">
<path d="M0 9573 l0 -458 32 -20 c70 -44 110 -64 146 -76 20 -6 57 -21 82 -32
36 -16 69 -21 170 -23 162 -4 290 -14 290 -23 0 -4 62 -15 138 -24 75 -9 166
-25 202 -35 143 -42 162 -44 276 -32 121 12 166 24 206 51 14 11 34 19 45 19
10 0 34 8 53 19 20 10 61 24 93 31 31 6 55 15 53 19 -3 4 25 12 62 19 105 18
267 91 277 124 4 13 13 30 20 38 7 8 15 40 18 71 7 70 52 166 87 184 27 14 44
32 74 79 19 30 11 46 -25 46 -9 0 -24 9 -34 20 -18 20 -18 21 3 43 14 15 22
36 22 60 0 51 18 47 23 -5 l4 -43 1 43 c2 32 6 42 20 43 9 0 -5 7 -33 14 -37
10 -60 11 -89 4 -22 -6 -60 -13 -85 -15 -25 -3 -48 -8 -51 -13 -3 -4 -34 -11
-70 -14 -36 -4 -76 -8 -90 -10 -14 -3 -72 -10 -130 -17 -58 -6 -107 -15 -110
-20 -11 -17 -240 -37 -240 -21 0 6 -18 11 -45 11 -25 0 -54 5 -65 10 -11 6
-30 15 -41 21 -18 9 -27 7 -52 -11 -18 -14 -32 -18 -36 -12 -3 5 -26 15 -51
22 -25 6 -61 23 -82 37 -34 23 -41 24 -116 18 -88 -8 -102 -2 -178 73 -18 17
-37 32 -42 32 -13 0 -53 46 -46 53 13 12 -54 35 -125 42 -57 6 -75 4 -82 -6
-6 -11 -16 -6 -43 21 -20 19 -36 40 -36 46 0 6 -10 20 -23 32 -22 21 -32 22
-200 22 l-177 0 0 -457z"/>
<path d="M4795 10018 c-25 -15 -76 -68 -65 -68 5 0 2 -13 -6 -30 -20 -39 -9
-92 25 -129 l27 -29 203 0 c164 -1 210 -4 246 -18 34 -13 60 -15 117 -9 164
16 340 2 323 -24 -2 -5 13 -27 35 -49 39 -40 50 -62 30 -62 -5 0 -10 -11 -10
-25 0 -14 5 -25 11 -25 5 0 7 -4 4 -10 -3 -5 2 -10 12 -10 52 -2 166 -19 172
-27 11 -15 99 -33 161 -33 41 0 60 -4 60 -12 1 -7 7 -1 15 13 15 28 48 39 120
39 24 0 45 5 47 11 3 8 70 12 228 12 l225 -1 86 -40 c91 -44 170 -106 195
-153 8 -16 21 -29 29 -29 8 0 15 -5 15 -11 0 -9 48 -72 102 -132 9 -11 20 -36
23 -57 4 -21 13 -41 21 -44 8 -3 14 -12 14 -19 0 -27 53 -109 76 -119 13 -6
24 -19 24 -30 0 -10 7 -18 15 -18 34 0 51 -87 31 -164 -19 -71 -22 -76 -52
-76 -27 0 -30 -9 -12 -43 17 -34 24 -47 59 -117 18 -36 38 -71 43 -79 14 -18
46 -111 103 -294 39 -126 66 -371 52 -472 -5 -38 -12 -89 -16 -112 -4 -33 -1
-46 15 -63 21 -23 42 -20 42 5 0 8 6 18 13 22 7 4 37 37 66 73 30 36 64 71 77
78 13 7 24 16 24 20 0 4 21 18 48 32 26 13 50 30 54 36 4 6 23 15 42 18 19 4
45 15 57 25 42 33 123 68 172 75 26 4 47 11 47 17 0 5 8 9 18 9 9 0 28 9 42
19 24 19 24 21 11 63 -7 24 -13 53 -12 66 0 12 1 30 1 40 1 9 -2 31 -6 48 -4
21 0 46 11 70 9 22 23 54 31 72 13 30 36 41 69 32 38 -11 90 -3 118 17 37 27
57 29 99 7 27 -14 39 -15 84 -4 41 10 69 10 130 1 43 -6 81 -15 84 -20 3 -5
37 -16 75 -25 96 -23 183 -57 191 -76 4 -8 10 -33 15 -55 4 -22 13 -61 20 -86
10 -39 9 -51 -5 -79 -12 -25 -16 -62 -16 -151 0 -75 -4 -120 -11 -125 -7 -4
-9 -28 -4 -73 7 -68 32 -118 97 -185 15 -16 25 -33 22 -38 -3 -4 2 -8 10 -8 8
0 20 -9 26 -20 6 -11 14 -19 18 -18 15 3 48 -16 77 -45 17 -16 47 -41 68 -54
20 -14 37 -30 37 -34 0 -5 9 -9 19 -9 11 0 26 -7 35 -15 8 -8 18 -15 23 -15
20 0 99 -88 127 -142 23 -46 86 -109 132 -134 34 -18 36 -18 48 -1 7 9 20 17
28 17 8 0 19 5 25 11 8 8 13 8 17 0 4 -6 11 -11 17 -11 6 0 8 282 7 767 -2
615 -6 767 -16 771 -7 2 -25 16 -40 31 -74 76 -221 179 -332 234 -55 27 -73
38 -121 69 -28 18 -56 29 -227 89 -62 21 -126 39 -142 39 -16 0 -41 5 -57 11
-40 15 -158 16 -176 0 -11 -9 -58 -12 -161 -12 -132 1 -152 -1 -212 -24 -93
-35 -127 -73 -148 -163 -9 -39 -16 -112 -16 -162 0 -86 -16 -151 -38 -150 -4
1 -16 20 -27 43 -11 23 -26 41 -32 40 -7 -2 -13 1 -13 6 0 5 6 12 13 14 6 3 2
6 -10 6 -16 1 -23 7 -23 20 0 13 8 21 23 23 15 2 22 10 23 26 1 12 9 31 18 41
9 10 22 47 28 82 6 35 16 78 23 94 8 17 17 42 20 58 4 15 11 27 16 27 5 0 9 7
9 16 0 21 59 102 79 109 9 4 32 26 51 50 19 24 42 46 50 49 9 3 24 20 34 36 9
17 25 38 35 48 27 28 71 90 71 101 0 6 4 11 8 11 4 0 32 35 60 78 29 42 73
102 98 132 24 30 49 64 54 75 21 41 88 124 166 206 90 92 166 184 177 212 6
16 -23 17 -529 17 l-536 0 7 -22 c4 -13 8 -32 9 -43 2 -11 12 -36 24 -55 26
-41 30 -121 8 -139 -11 -9 -23 -8 -52 4 -21 9 -43 14 -50 11 -13 -5 -84 58
-84 74 0 4 -5 10 -11 12 -8 3 -9 20 -3 58 9 54 10 55 56 70 72 23 68 30 -15
30 l-75 0 -11 -50 c-6 -28 -10 -54 -10 -58 5 -32 -3 -52 -21 -52 -18 0 -20 -7
-22 -82 -2 -106 -2 -112 7 -178 9 -63 44 -171 82 -247 25 -52 27 -53 68 -53
42 0 43 -1 49 -39 3 -22 10 -41 14 -43 4 -1 15 -34 24 -71 15 -63 15 -77 1
-175 -13 -90 -14 -128 -4 -237 16 -188 16 -198 -10 -190 -13 4 -25 2 -29 -5
-5 -8 -21 -10 -49 -5 -37 6 -41 10 -41 35 0 15 -7 44 -15 63 -8 20 -15 48 -15
63 0 23 -9 57 -42 159 -5 17 -10 35 -11 40 -2 6 -14 35 -28 65 -41 87 -59 128
-59 134 0 8 -65 144 -82 171 -32 50 -91 117 -185 210 -131 128 -151 145 -168
145 -8 0 -15 4 -15 10 0 14 -117 88 -151 95 -16 4 -29 10 -29 15 0 4 -25 16
-55 25 -30 10 -55 21 -55 26 0 4 -10 11 -22 15 -13 4 -45 17 -73 29 -27 13
-65 29 -82 36 -18 8 -33 17 -33 21 0 3 -26 12 -57 18 -32 6 -67 15 -78 20 -11
5 -45 16 -75 25 -30 9 -82 26 -115 38 -59 20 -73 21 -940 24 -657 2 -885 0
-900 -9z"/>
<path d="M7240 8740 c0 -5 5 -10 10 -10 6 0 10 5 10 10 0 6 -4 10 -10 10 -5 0
-10 -4 -10 -10z"/>
<path d="M80 8625 c0 -8 -9 -15 -19 -15 -11 0 -29 -12 -40 -26 -19 -24 -21
-40 -21 -153 0 -126 0 -128 27 -153 16 -14 39 -29 53 -33 14 -4 32 -16 41 -28
14 -17 32 -22 100 -27 52 -3 97 -13 119 -24 58 -31 255 -43 386 -23 58 10 120
23 137 31 31 14 77 21 202 32 33 3 69 9 80 14 11 4 70 16 130 25 61 10 121 23
135 30 14 6 52 17 85 24 33 7 76 21 95 31 19 10 55 24 80 31 25 7 47 16 50 19
3 3 37 12 75 19 121 22 122 23 100 32 -19 7 -19 8 1 8 60 2 164 86 178 142 l6
26 -123 7 c-180 9 -357 -4 -415 -31 -21 -9 -88 -18 -175 -24 -78 -5 -153 -11
-166 -15 -51 -12 -338 -4 -436 12 -55 9 -133 17 -173 19 -41 1 -77 7 -81 13
-3 6 -46 16 -94 22 -48 6 -99 15 -113 20 -14 6 -70 10 -125 10 -81 0 -99 -3
-99 -15z"/>
<path d="M6858 8567 c12 -13 22 -29 22 -35 0 -12 8 -23 56 -76 13 -14 21 -26
18 -26 -5 0 10 -21 56 -77 6 -7 10 -19 10 -27 0 -8 4 -18 10 -21 5 -3 25 -38
45 -77 19 -39 42 -79 51 -89 9 -10 13 -22 10 -28 -3 -5 1 -16 9 -24 11 -12 12
-16 2 -20 -9 -3 -6 -16 10 -48 12 -24 25 -55 28 -68 4 -13 14 -32 24 -42 9
-11 16 -28 17 -37 1 -10 13 -36 27 -59 15 -23 28 -57 30 -77 2 -19 9 -41 15
-49 7 -8 15 -29 19 -47 10 -51 39 -121 49 -120 5 1 8 8 8 16 -1 8 4 14 11 14
10 0 10 15 0 73 -16 91 -42 192 -61 235 -20 44 -44 136 -44 170 0 18 -19 51
-55 97 -30 38 -55 76 -55 86 0 9 -7 22 -15 29 -8 7 -15 20 -15 30 0 9 -8 28
-18 41 -10 13 -21 32 -25 42 -3 9 -13 17 -22 17 -8 0 -15 7 -15 15 0 9 -6 18
-14 21 -8 3 -38 37 -67 75 -29 38 -58 69 -64 69 -6 0 -21 9 -33 20 -30 28 -50
25 -24 -3z"/>
<path d="M4430 8335 c0 -19 39 -19 95 0 l40 13 -67 1 c-54 1 -68 -2 -68 -14z"/>
<path d="M3898 8243 c7 -3 16 -2 19 1 4 3 -2 6 -13 5 -11 0 -14 -3 -6 -6z"/>
<path d="M3568 8193 c6 -2 18 -2 25 0 6 3 1 5 -13 5 -14 0 -19 -2 -12 -5z"/>
<path d="M5600 8170 c0 -13 28 -25 38 -16 3 4 0 11 -8 16 -20 13 -30 12 -30 0z"/>
<path d="M5660 8140 c20 -13 33 -13 25 0 -3 6 -14 10 -23 10 -15 0 -15 -2 -2
-10z"/>
<path d="M3105 8120 c-7 -12 12 -12 40 0 18 8 17 9 -7 9 -15 1 -30 -3 -33 -9z"/>
<path d="M5714 8121 c3 -5 15 -11 26 -14 17 -4 19 -3 9 9 -12 15 -44 20 -35 5z"/>
<path d="M2785 8060 c-27 -11 -57 -19 -67 -20 -9 0 -38 -12 -66 -26 -27 -14
-55 -27 -63 -28 -8 -2 -27 -9 -44 -16 l-30 -14 29 -4 c16 -2 39 1 50 6 50 24
108 42 155 48 28 4 51 10 51 15 0 5 6 9 14 9 8 0 16 7 20 15 3 8 12 15 21 15
8 0 15 5 15 10 0 14 -28 11 -85 -10z"/>
<path d="M5826 8066 c21 -15 30 -14 19 3 -3 6 -14 11 -23 11 -13 0 -13 -2 4
-14z"/>
<path d="M4275 8040 c-16 -4 -60 -8 -97 -9 -37 0 -69 -5 -72 -9 -7 -11 -120
-30 -226 -37 -47 -4 -98 -10 -115 -15 -45 -13 -157 -30 -199 -30 -66 0 -206
-90 -206 -132 0 -10 -6 -18 -12 -18 -21 0 -93 -122 -85 -143 4 -12 14 -13 51
-4 25 6 46 14 46 19 0 4 8 8 18 8 9 0 55 14 102 31 47 16 128 39 180 50 52 12
99 25 104 30 6 5 21 9 34 9 13 0 69 12 125 26 97 25 109 26 266 20 90 -4 171
-11 180 -16 46 -23 133 -29 371 -27 223 2 258 0 280 -15 14 -9 51 -24 83 -34
31 -10 57 -21 57 -26 0 -4 9 -8 21 -8 11 0 30 -5 41 -11 11 -6 80 -12 153 -14
97 -2 140 -7 163 -19 17 -9 38 -16 47 -16 8 0 15 -4 15 -10 0 -5 6 -10 13 -10
8 0 24 -11 37 -25 13 -14 27 -25 32 -25 4 0 29 -20 55 -45 25 -25 52 -45 59
-45 7 0 17 -6 21 -14 4 -8 28 -24 51 -36 24 -13 46 -29 49 -36 3 -8 13 -14 23
-14 10 0 22 -9 25 -20 4 -12 14 -28 24 -38 29 -30 91 -110 91 -119 0 -4 9 -14
20 -21 11 -7 20 -19 20 -26 0 -8 9 -18 20 -21 11 -3 20 -12 20 -20 0 -7 7 -15
15 -19 8 -3 15 -12 15 -20 0 -8 3 -16 8 -18 23 -10 78 -119 107 -210 16 -52
17 -58 1 -73 -9 -9 -16 -25 -16 -35 0 -10 -12 -28 -26 -39 -19 -15 -24 -26
-19 -41 8 -24 -3 -63 -15 -55 -10 6 -24 -13 -25 -37 -2 -28 -12 -32 -38 -15
-23 15 -26 14 -56 -17 -17 -17 -31 -37 -31 -44 0 -7 -7 -12 -15 -12 -8 0 -23
-19 -33 -42 -16 -36 -17 -47 -7 -68 35 -71 55 -119 55 -132 0 -9 6 -21 14 -27
8 -7 18 -27 21 -44 7 -32 38 -124 54 -162 14 -30 49 -155 56 -200 4 -22 11
-53 15 -70 5 -16 14 -74 19 -127 5 -53 14 -105 20 -116 10 -19 12 -19 46 -4
19 9 38 24 41 34 3 10 13 18 23 18 10 0 23 11 29 24 14 32 89 57 103 35 5 -8
7 -24 4 -36 -3 -14 -1 -23 7 -23 9 0 9 -3 0 -12 -7 -7 -12 -24 -12 -38 0 -15
-9 -35 -20 -45 -11 -10 -20 -22 -20 -26 0 -4 -13 -28 -30 -52 -16 -25 -30 -48
-30 -52 0 -3 -13 -23 -29 -43 -16 -20 -39 -57 -52 -82 -13 -25 -32 -54 -41
-64 -10 -11 -18 -23 -18 -28 0 -4 -6 -8 -13 -8 -9 0 -12 12 -10 38 5 51 -12
21 -22 -38 -10 -63 -80 -217 -121 -265 -21 -25 -54 -34 -54 -15 0 6 -4 10 -10
10 -15 0 -12 -27 5 -61 l16 -30 30 26 c17 14 34 25 38 25 19 0 85 63 103 97
11 21 39 67 63 103 23 36 63 99 90 140 26 41 56 87 66 102 11 15 19 32 19 37
0 6 6 14 13 18 11 7 84 112 97 139 3 5 11 17 18 25 7 8 25 31 41 51 45 60 107
106 151 113 22 4 42 11 45 16 3 4 51 8 106 8 55 -1 103 2 107 6 4 3 -18 30
-49 58 -30 29 -58 60 -61 69 -4 9 -19 25 -35 35 -15 10 -36 26 -45 36 -10 9
-22 17 -28 17 -23 0 -60 78 -70 146 -10 76 -41 253 -64 379 -13 70 -49 211
-76 300 -18 60 -58 161 -84 209 -14 27 -26 54 -26 60 0 6 -9 22 -20 36 -11 14
-20 32 -20 41 0 9 -7 22 -15 29 -8 7 -26 36 -40 66 -14 30 -29 54 -33 54 -4 0
-18 21 -32 48 -14 26 -42 68 -62 94 -21 26 -38 51 -38 57 0 6 -7 11 -15 11 -8
0 -15 5 -15 11 0 5 -34 44 -75 86 -41 42 -75 78 -75 80 0 7 -62 58 -90 73 -27
15 -93 59 -178 120 -23 16 -46 30 -51 30 -4 0 -25 13 -47 30 -21 16 -46 30
-55 30 -9 0 -26 9 -38 19 -12 10 -43 22 -69 26 -26 4 -60 13 -77 20 -16 8 -57
21 -90 30 -33 9 -73 20 -90 25 -39 12 -104 26 -185 40 -36 7 -87 16 -115 22
-62 11 -679 19 -720 8z"/>
<path d="M5878 8033 c7 -3 16 -2 19 1 4 3 -2 6 -13 5 -11 0 -14 -3 -6 -6z"/>
<path d="M5916 8017 c3 -10 9 -15 12 -12 3 3 0 11 -7 18 -10 9 -11 8 -5 -6z"/>
<path d="M5954 7981 c3 -5 16 -11 28 -14 22 -6 22 -5 4 8 -22 17 -40 20 -32 6z"/>
<path d="M2443 7932 c-24 -9 -43 -20 -43 -25 0 -14 72 5 91 24 23 23 10 23
-48 1z"/>
<path d="M2150 7885 c-52 -7 -115 -18 -140 -25 -26 -7 -107 -12 -195 -12 -91
1 -164 -4 -185 -11 -19 -6 -79 -38 -133 -69 -53 -32 -104 -58 -112 -58 -7 0
-16 -4 -19 -9 -3 -5 -30 -15 -58 -21 -29 -7 -55 -16 -58 -19 -6 -8 -140 -31
-180 -31 -17 0 -30 -4 -30 -10 0 -5 -12 -10 -27 -10 -16 0 -67 -7 -114 -15
-47 -8 -153 -17 -235 -19 -82 -3 -203 -10 -269 -16 -66 -7 -146 -11 -177 -10
-34 0 -58 -3 -58 -9 0 -11 -86 -8 -97 3 -4 3 -19 6 -35 6 -24 0 -28 -4 -28
-27 l0 -28 103 -1 c158 -1 322 -19 345 -37 25 -20 -14 -36 -73 -30 -45 5 -56
2 -74 -16 -11 -11 -30 -21 -41 -21 -16 0 -20 -7 -20 -30 0 -16 -4 -30 -8 -30
-4 0 -16 -13 -25 -30 -18 -30 -18 -30 -49 -14 -30 16 -31 17 -13 30 15 11 16
14 3 14 -8 0 -21 7 -28 15 -7 8 -18 15 -26 15 -7 0 -25 11 -40 25 -50 46 -54
38 -54 -110 l0 -135 24 0 c13 0 26 5 28 10 4 13 136 21 144 9 3 -5 -1 -9 -8
-10 -7 0 2 -5 20 -10 17 -5 32 -16 32 -24 0 -8 3 -14 7 -13 12 3 117 -30 149
-47 16 -8 34 -15 40 -15 23 0 92 -91 98 -129 3 -21 13 -44 21 -51 9 -7 14 -19
11 -26 -3 -8 4 -14 17 -16 34 -5 141 15 152 28 6 6 44 19 85 29 41 10 84 21
95 26 11 4 37 13 59 19 23 8 40 20 43 31 3 11 11 19 19 19 7 0 21 9 31 19 10
10 38 29 63 42 25 12 52 28 60 34 8 7 33 18 55 25 22 7 59 23 83 36 23 13 50
24 58 24 9 0 28 6 42 14 68 36 143 65 207 80 38 10 74 21 80 26 5 4 26 11 45
15 19 4 55 18 80 31 25 13 53 24 62 24 10 0 18 4 18 8 0 5 18 15 40 22 22 7
40 16 40 20 0 4 18 15 40 25 22 10 40 22 40 27 0 4 7 8 15 8 8 0 15 5 15 10 0
6 11 10 25 10 28 0 34 26 13 60 -10 16 -10 24 0 40 6 11 12 29 12 40 0 11 7
20 15 20 18 0 20 14 3 28 -9 7 -35 4 -83 -9 -38 -10 -78 -19 -87 -19 -9 0 -29
-11 -44 -25 -15 -14 -34 -25 -43 -25 -9 0 -26 -7 -39 -15 -12 -9 -44 -19 -72
-22 -43 -5 -50 -3 -50 11 0 16 -8 17 -57 12 -222 -21 -260 -20 -260 8 0 8 18
22 39 32 21 9 38 20 38 24 0 4 18 10 40 14 22 3 40 10 40 14 0 4 57 14 127 21
70 7 146 16 168 21 22 5 74 14 115 20 93 13 181 40 187 57 3 7 13 13 23 13 16
0 32 20 34 44 1 5 17 15 36 22 23 8 28 13 15 13 -17 1 -17 3 -5 11 12 8 11 10
-7 10 -12 0 -27 2 -35 4 -7 2 -56 -2 -108 -9z"/>
<path d="M4441 7437 c-7 -7 -31 -13 -54 -13 -58 -2 -219 -22 -225 -28 -1 -2
62 -6 140 -10 79 -4 170 -9 203 -11 33 -3 54 -2 47 1 -10 5 -10 9 -1 20 13 15
39 19 39 5 0 -9 166 -22 188 -14 9 4 3 11 -19 20 -22 9 -35 10 -37 3 -5 -13
-82 -13 -82 0 0 6 6 11 13 11 23 2 -68 18 -134 23 -44 4 -70 1 -78 -7z"/>
<path d="M4610 7360 c19 -13 30 -13 30 0 0 6 -10 10 -22 10 -19 0 -20 -2 -8
-10z"/>
<path d="M4790 7360 c19 -13 30 -13 30 0 0 6 -10 10 -22 10 -19 0 -20 -2 -8
-10z"/>
<path d="M8170 7331 c8 -5 41 -12 72 -15 32 -4 60 -11 63 -16 3 -5 31 -12 63
-16 31 -3 68 -12 82 -20 24 -13 144 -44 169 -44 7 0 19 -7 27 -15 9 -8 20 -15
25 -15 16 0 10 30 -8 37 -10 4 -33 17 -52 30 -19 13 -52 28 -75 34 -22 6 -46
15 -52 20 -6 5 -45 14 -85 19 -93 12 -250 13 -229 1z"/>
<path d="M7435 7262 c-4 -37 -7 -94 -7 -127 2 -98 -39 -305 -76 -387 -12 -26
-22 -52 -22 -58 0 -10 -8 -21 -37 -55 -14 -15 -18 -55 -5 -54 4 0 40 39 80 87
40 48 92 108 116 134 104 112 135 159 147 223 6 32 3 45 -14 70 -12 16 -27 34
-34 38 -7 4 -13 14 -13 21 0 7 -9 21 -20 31 -11 10 -20 24 -20 31 0 7 -4 14
-8 16 -4 2 -24 24 -44 50 l-35 47 -8 -67z"/>
<path d="M3999 7196 c-4 -4 -154 -9 -335 -11 -246 -4 -341 -8 -379 -19 -27 -8
-81 -20 -120 -26 -38 -7 -79 -18 -91 -25 -11 -7 -49 -21 -85 -30 -35 -10 -69
-22 -76 -27 -16 -13 -121 -37 -160 -38 -23 0 -33 -5 -33 -15 0 -17 -2 -18 -55
-5 -31 7 -45 6 -64 -7 -17 -11 -36 -14 -72 -9 -31 4 -49 3 -49 -4 0 -5 -8 -10
-19 -10 -10 0 -24 -6 -30 -14 -6 -7 -30 -16 -54 -19 -23 -4 -76 -13 -117 -22
-41 -8 -102 -20 -135 -25 -33 -5 -116 -19 -185 -30 -69 -11 -176 -27 -239 -35
-87 -11 -119 -19 -136 -35 -12 -11 -33 -20 -47 -20 -14 0 -38 -12 -53 -26 -25
-23 -27 -27 -12 -36 9 -5 17 -20 17 -33 0 -22 50 -75 71 -75 23 0 166 43 179
54 8 6 37 18 65 25 27 6 52 16 55 20 5 8 138 43 154 41 5 -1 12 4 17 11 5 8
49 16 126 22 65 4 132 15 148 22 17 8 50 17 75 20 43 6 196 49 290 83 25 8 63
17 84 19 22 3 47 8 56 13 9 5 77 8 151 8 85 -1 144 2 162 10 34 14 253 15 342
1 33 -5 177 -16 319 -25 239 -14 261 -17 287 -37 15 -12 28 -29 28 -38 1 -9 8
-22 16 -29 8 -7 15 -18 15 -26 0 -29 25 -65 49 -71 14 -3 40 -16 58 -29 21
-16 45 -24 71 -24 31 0 43 -5 56 -25 9 -14 24 -25 34 -25 21 0 87 -34 115 -60
11 -11 30 -23 41 -26 12 -4 43 -28 70 -55 26 -27 52 -49 57 -49 5 0 12 -12 15
-27 4 -16 24 -46 45 -67 22 -22 39 -45 39 -52 0 -6 11 -15 25 -18 14 -4 29
-14 32 -24 4 -9 20 -35 37 -56 31 -40 56 -81 78 -126 7 -14 15 -27 18 -30 3
-3 14 -22 25 -42 20 -38 35 -49 35 -25 0 6 5 4 11 -6 8 -13 8 -22 1 -29 -16
-16 8 -54 86 -134 6 -7 12 -17 12 -23 0 -10 19 -58 49 -119 9 -19 25 -40 36
-48 11 -8 20 -18 20 -22 0 -5 7 -16 15 -25 25 -28 34 -41 51 -77 55 -115 60
-132 54 -174 -5 -33 -3 -45 11 -57 9 -8 19 -13 22 -11 3 1 7 -5 8 -15 4 -24
26 -64 47 -85 9 -10 18 -33 19 -50 1 -18 2 -44 3 -58 1 -27 9 -51 31 -92 8
-14 14 -37 14 -50 0 -13 5 -29 12 -36 9 -9 9 -18 0 -37 -7 -14 -12 -34 -12
-43 0 -10 -6 -24 -12 -30 -7 -7 -13 -20 -13 -30 0 -9 -5 -16 -12 -15 -7 2 -9
-6 -3 -25 5 -15 13 -43 19 -63 24 -78 4 -105 -37 -49 -13 17 -29 30 -37 30 -8
0 -15 7 -15 15 0 8 -7 15 -15 15 -8 0 -15 -4 -15 -10 0 -5 5 -10 12 -10 6 0 8
-3 5 -6 -4 -4 -13 -1 -22 6 -10 8 -15 9 -15 1 0 -6 -4 -11 -9 -11 -5 0 -12 19
-16 43 -6 34 -8 38 -15 22 l-7 -20 -5 20 c-4 14 -6 11 -7 -11 -1 -40 18 -144
31 -169 8 -14 8 -20 -1 -23 -16 -5 -13 -43 4 -66 8 -11 15 -31 15 -45 0 -13 4
-38 9 -55 5 -17 18 -62 29 -101 48 -165 62 -267 62 -458 -1 -100 -5 -200 -10
-222 -5 -22 -14 -60 -20 -85 -24 -102 -30 -133 -27 -137 3 -2 17 22 32 54 28
57 102 161 139 196 10 9 14 17 7 17 -12 0 25 59 47 73 6 4 12 14 12 22 0 7 6
20 13 27 11 13 18 24 50 80 6 13 14 25 17 28 3 3 14 21 24 40 24 43 88 143 97
150 3 3 12 16 19 29 13 26 24 40 53 72 9 10 17 23 17 27 0 4 10 22 23 39 12
17 29 41 37 53 38 56 169 188 203 206 15 8 27 19 27 24 0 6 4 10 9 10 5 0 22
13 39 28 21 20 48 32 91 39 33 7 71 19 83 28 22 16 20 17 -47 11 -114 -10
-120 -11 -127 -21 -5 -6 -11 -6 -19 2 -8 8 -4 15 18 26 60 33 74 39 158 60 6
2 20 8 32 15 25 14 133 17 133 4 0 -8 19 -15 117 -44 18 -5 35 -14 38 -19 4
-5 29 -9 56 -9 36 0 71 -10 125 -35 41 -19 80 -35 87 -35 7 0 20 -9 30 -20 9
-11 31 -23 47 -27 17 -3 30 -9 30 -13 0 -5 22 -16 49 -25 27 -9 62 -27 77 -41
16 -13 39 -27 52 -30 12 -4 22 -9 22 -14 0 -4 19 -16 42 -26 24 -10 51 -27 60
-36 10 -10 23 -18 29 -18 6 0 23 -9 37 -21 44 -34 116 -79 127 -79 6 0 23 -11
39 -25 16 -14 35 -25 42 -25 6 0 22 -11 35 -25 13 -13 28 -25 32 -25 5 0 27
-16 50 -35 22 -19 47 -35 54 -35 8 0 12 -4 8 -9 -3 -5 3 -12 14 -16 11 -3 48
-29 83 -58 36 -29 77 -61 92 -72 42 -29 110 -85 121 -98 22 -27 97 -88 184
-151 53 -38 196 -148 211 -162 8 -8 38 -32 65 -54 28 -22 57 -47 66 -55 9 -8
21 -15 27 -15 7 0 17 -9 24 -20 7 -11 17 -20 23 -20 5 0 21 -11 35 -25 31 -30
140 -121 243 -203 42 -34 98 -81 123 -104 25 -24 50 -45 56 -47 15 -5 173
-165 171 -173 -2 -4 6 -9 16 -13 10 -3 41 -29 68 -58 48 -51 136 -130 162
-146 8 -5 37 -29 65 -54 53 -48 121 -105 175 -147 18 -14 44 -35 59 -48 97
-82 92 -80 92 -40 0 20 -8 42 -17 52 -17 16 -130 101 -162 121 -9 6 -21 18
-29 27 -7 9 -19 24 -27 32 -8 8 -15 19 -15 24 0 9 -32 27 -65 36 -23 7 -52 46
-34 46 8 0 8 5 -1 15 -17 20 -31 19 -23 -2 6 -16 3 -15 -17 2 -61 52 -307 283
-370 348 -20 20 -40 37 -45 37 -4 0 -18 10 -30 23 -24 24 -75 67 -79 67 -2 0
-32 27 -67 60 -35 34 -71 66 -79 73 -45 36 -78 56 -84 50 -4 -4 -4 0 0 10 4
11 1 17 -7 17 -14 0 -25 8 -111 78 -22 17 -46 32 -54 32 -8 0 -20 11 -26 25
-6 14 -17 25 -25 25 -7 0 -13 4 -13 10 0 5 -7 6 -17 3 -10 -4 -14 -2 -10 4 3
5 -8 20 -26 33 -38 29 -41 31 -91 75 -21 19 -42 35 -47 35 -5 0 -8 6 -6 12 1
7 -8 14 -20 16 -13 2 -23 8 -23 13 0 5 -5 9 -11 9 -7 0 -35 20 -63 45 -82 72
-90 79 -129 105 -20 14 -37 28 -37 33 0 4 -5 7 -11 7 -6 0 -17 6 -25 14 -8 8
-14 19 -14 25 0 6 -6 11 -14 11 -8 0 -30 13 -48 30 -18 16 -37 30 -42 30 -5 0
-19 10 -31 23 -29 29 -59 53 -86 67 -12 7 -43 32 -68 56 -25 24 -50 44 -56 44
-15 0 -65 46 -65 59 0 7 -6 11 -12 8 -18 -6 -50 12 -43 24 4 5 -7 12 -24 15
-18 4 -28 11 -25 19 5 12 -51 45 -75 45 -6 0 -11 7 -11 15 0 18 -31 35 -64 35
-18 0 -24 4 -20 15 4 10 0 15 -11 15 -10 0 -33 9 -51 21 -19 11 -38 18 -43 15
-5 -4 -26 5 -47 19 -20 14 -42 25 -49 25 -7 0 -49 18 -94 40 -44 22 -86 40
-93 40 -7 0 -35 14 -63 30 -27 16 -57 30 -65 30 -13 0 -94 30 -175 65 -72 31
-124 38 -282 37 -145 -1 -170 -4 -232 -25 l-70 -25 -12 37 c-7 20 -15 38 -18
41 -4 3 -13 19 -20 35 -8 17 -16 25 -18 17 -3 -7 5 -33 16 -57 24 -50 28 -99
9 -93 -7 3 -40 58 -74 124 -53 104 -62 129 -68 195 -6 68 -4 78 16 110 13 19
33 38 44 43 20 9 54 71 54 99 0 6 6 30 14 52 14 39 11 70 -5 59 -13 -8 -11 14
5 49 22 50 25 112 10 185 -8 37 -14 85 -14 107 1 48 -10 100 -38 180 -47 133
-54 150 -67 175 -7 14 -23 45 -34 70 -12 25 -34 68 -50 95 -16 28 -42 73 -56
100 -15 28 -42 64 -60 80 -17 17 -34 35 -36 42 -13 40 -352 383 -377 383 -4 0
-22 13 -40 29 -17 16 -41 32 -52 36 -11 3 -20 10 -20 16 0 5 -15 15 -33 23
-18 7 -46 25 -62 40 -15 14 -34 26 -41 26 -7 0 -16 5 -19 10 -10 15 25 7 80
-20 47 -22 183 -115 196 -132 3 -5 15 -10 27 -13 12 -2 30 -11 39 -20 9 -9 27
-24 41 -33 32 -21 83 -65 144 -124 26 -27 50 -48 53 -48 37 0 -227 261 -314
310 -14 8 -28 19 -29 23 -2 4 -25 18 -50 31 -26 13 -60 38 -75 54 -16 16 -47
38 -70 48 -23 10 -44 21 -47 24 -3 4 -21 12 -40 19 -19 8 -53 22 -75 31 -130
57 -332 106 -520 125 -161 17 -458 30 -466 21z m206 -376 c-3 -5 -15 -10 -26
-10 -10 0 -19 5 -19 10 0 6 12 10 26 10 14 0 23 -4 19 -10z m1235 -2270 c0 -5
-8 -10 -17 -10 -15 0 -16 2 -3 10 19 12 20 12 20 0z m50 -209 c0 -38 -16 -48
-24 -16 -4 14 -12 25 -19 26 -6 0 -3 4 8 9 32 14 35 12 35 -19z m1995 -81 c3
-5 1 -10 -4 -10 -6 0 -11 5 -11 10 0 6 2 10 4 10 3 0 8 -4 11 -10z"/>
<path d="M5288 7073 c7 -3 16 -2 19 1 4 3 -2 6 -13 5 -11 0 -14 -3 -6 -6z"/>
<path d="M2530 7000 c-12 -8 -11 -10 8 -10 12 0 22 5 22 10 0 13 -11 13 -30 0z"/>
<path d="M9996 6815 c4 -8 8 -15 10 -15 2 0 4 7 4 15 0 8 -4 15 -10 15 -5 0
-7 -7 -4 -15z"/>
<path d="M7260 6560 c0 -5 5 -10 10 -10 6 0 10 5 10 10 0 6 -4 10 -10 10 -5 0
-10 -4 -10 -10z"/>
<path d="M7227 6523 c-4 -3 -7 -14 -7 -22 0 -9 -9 -22 -20 -29 -11 -7 -20 -17
-20 -23 0 -5 -13 -24 -30 -42 -16 -18 -30 -37 -30 -42 0 -6 -13 -26 -30 -45
-16 -19 -29 -40 -30 -47 0 -6 -11 -24 -24 -40 -28 -34 -63 -202 -47 -230 8
-16 11 -14 21 12 20 55 51 113 66 125 7 7 14 18 14 26 0 7 16 42 36 78 19 36
36 74 37 85 1 12 4 21 7 21 3 0 11 15 18 33 24 58 36 82 54 106 21 28 8 58
-15 34z"/>
<path d="M2618 6133 c6 -2 18 -2 25 0 6 3 1 5 -13 5 -14 0 -19 -2 -12 -5z"/>
<path d="M7535 5973 c-27 -14 -63 -43 -80 -64 -16 -22 -34 -45 -40 -52 -16
-21 -36 -57 -77 -142 -22 -44 -43 -88 -49 -97 -17 -33 -11 -41 26 -34 22 5 35
3 35 -4 0 -7 6 -8 19 0 14 7 27 6 47 -5 15 -7 44 -17 66 -20 21 -4 38 -11 38
-15 0 -5 24 -17 53 -28 28 -11 66 -27 82 -36 17 -9 34 -16 38 -16 13 0 261
-123 268 -133 6 -8 46 -31 129 -74 19 -10 42 -25 51 -33 9 -8 36 -26 59 -40
23 -14 57 -37 74 -52 17 -15 40 -31 51 -34 11 -4 28 -14 37 -23 22 -21 34 -30
86 -65 23 -16 42 -32 42 -35 0 -4 29 -26 64 -50 35 -23 67 -49 70 -57 3 -8 12
-14 21 -14 8 0 15 -4 15 -10 0 -5 34 -34 75 -65 81 -60 103 -77 146 -115 15
-14 40 -34 55 -45 36 -27 74 -60 164 -144 41 -38 93 -84 114 -103 22 -18 74
-67 116 -108 42 -41 107 -102 145 -135 38 -33 76 -67 85 -75 9 -8 37 -34 62
-57 25 -23 43 -44 40 -47 -3 -3 0 -6 6 -6 6 0 34 -21 62 -47 41 -38 50 -53 50
-80 0 -22 5 -33 14 -33 8 0 21 -10 28 -23 7 -13 28 -46 46 -73 27 -40 33 -56
29 -87 -6 -45 -22 -67 -49 -67 -18 0 -19 -5 -13 -60 6 -53 5 -59 -9 -54 -23 9
-21 -37 3 -65 l18 -21 7 32 c6 33 20 30 29 -7 2 -11 3 -3 2 17 -4 46 15 77 33
55 7 -8 22 -12 37 -9 14 2 25 3 25 1 3 -39 14 -118 20 -138 5 -16 7 3 4 47 -3
45 -1 72 6 72 7 0 10 147 10 440 0 489 5 452 -69 496 -17 10 -31 24 -31 31 0
7 -5 13 -11 13 -11 0 -229 213 -229 224 0 8 -552 558 -601 600 -19 15 -52 45
-75 65 -23 20 -67 59 -99 86 -32 28 -79 71 -106 98 -26 26 -51 47 -56 47 -5 0
-22 12 -40 28 -39 34 -57 49 -117 92 -26 19 -62 47 -79 63 -16 15 -36 27 -43
27 -8 0 -14 5 -14 10 0 10 -44 35 -136 79 -23 11 -45 24 -48 30 -4 6 -33 18
-64 27 -31 9 -59 20 -62 25 -3 5 -44 18 -90 31 -47 12 -88 26 -91 30 -3 5 -70
13 -150 19 -81 6 -157 17 -173 25 -38 18 -42 18 -101 -13z"/>
<path d="M3945 5900 c3 -5 11 -10 16 -10 6 0 7 5 4 10 -3 6 -11 10 -16 10 -6
0 -7 -4 -4 -10z"/>
<path d="M3980 5882 c0 -5 18 -17 40 -27 22 -10 40 -21 40 -25 0 -4 16 -15 35
-24 19 -9 35 -21 35 -26 0 -6 6 -10 13 -10 7 0 23 -10 37 -23 14 -13 32 -27
41 -33 22 -12 84 -63 119 -96 16 -16 33 -28 39 -28 6 0 11 -4 11 -10 0 -5 5
-10 10 -10 17 0 11 20 -7 27 -10 3 -30 18 -45 32 -43 41 -67 61 -74 61 -4 0
-17 11 -30 25 -13 14 -27 25 -32 25 -4 0 -23 13 -42 30 -18 16 -46 35 -62 42
-15 7 -28 16 -28 19 0 3 -18 14 -40 24 -22 10 -40 22 -40 27 0 4 -4 8 -10 8
-5 0 -10 -4 -10 -8z"/>
<path d="M8733 5846 c15 -14 29 -26 31 -26 2 0 20 -16 40 -35 21 -19 46 -35
58 -35 30 0 17 22 -28 47 -21 12 -44 26 -50 31 -6 6 -26 18 -45 27 l-34 18 28
-27z"/>
<path d="M9200 5704 c0 -7 27 -34 34 -34 13 0 5 16 -14 28 -11 7 -20 10 -20 6z"/>
<path d="M8960 5682 c0 -10 22 -32 32 -32 5 0 3 9 -4 20 -13 20 -28 27 -28 12z"/>
<path d="M3164 5646 c16 -8 38 -11 50 -8 19 5 19 6 0 13 -10 4 -32 8 -49 7
l-30 0 29 -12z"/>
<path d="M9263 5646 c9 -7 17 -17 17 -23 0 -11 60 -57 66 -50 7 7 -77 87 -90
87 -6 0 -3 -7 7 -14z"/>
<path d="M3284 5631 c7 -11 86 -31 121 -31 15 0 41 -6 58 -14 18 -8 61 -22 97
-31 80 -19 160 -56 160 -72 0 -7 4 -13 9 -13 5 0 12 6 14 13 4 8 8 9 14 1 4
-6 29 -19 55 -29 26 -10 53 -24 59 -31 6 -7 26 -18 45 -24 19 -7 32 -16 29
-21 -4 -5 1 -9 9 -9 9 0 32 -9 52 -20 20 -12 39 -19 41 -16 3 3 -10 13 -30 23
-72 37 -122 66 -127 72 -3 3 -25 16 -50 29 -25 12 -56 29 -70 36 -48 27 -139
66 -152 66 -8 0 -23 6 -34 14 -11 8 -33 16 -49 19 -109 18 -163 31 -159 39 3
4 -18 8 -46 8 -28 0 -49 -4 -46 -9z"/>
<path d="M9035 5610 c3 -5 8 -10 11 -10 2 0 4 5 4 10 0 6 -5 10 -11 10 -5 0
-7 -4 -4 -10z"/>
<path d="M1579 5586 c-2 -2 -83 -14 -179 -25 -97 -11 -200 -29 -230 -40 l-55
-20 50 0 c28 0 97 6 155 15 242 36 287 43 320 52 l35 10 -32 1 c-17 1 -38 3
-45 6 -8 3 -16 4 -19 1z"/>
<path d="M9070 5576 c0 -8 5 -18 10 -21 6 -3 10 1 10 9 0 8 -4 18 -10 21 -5 3
-10 -1 -10 -9z"/>
<path d="M4446 5535 c27 -25 34 -29 34 -20 0 7 -43 45 -52 45 -5 0 3 -11 18
-25z"/>
<path d="M9380 5535 c0 -5 186 -190 294 -294 31 -29 59 -51 63 -48 3 4 -8 20
-26 36 -17 16 -31 34 -31 39 0 6 -8 13 -17 16 -22 7 -103 82 -103 96 0 5 -5
10 -12 10 -7 0 -44 34 -84 75 -66 69 -84 84 -84 70z"/>
<path d="M9160 5486 c0 -15 261 -280 292 -297 10 -5 18 -13 18 -18 0 -10 294
-306 344 -346 20 -16 51 -42 69 -57 142 -118 137 -114 137 -86 0 17 -12 31
-41 50 -22 14 -84 67 -137 116 -155 145 -174 162 -183 162 -5 0 -9 7 -9 15 0
8 -11 17 -25 21 -14 3 -25 13 -25 21 0 18 -89 111 -366 383 -52 51 -74 61 -74
36z"/>
<path d="M4510 5485 c0 -5 5 -17 10 -25 5 -8 10 -10 10 -5 0 6 -5 17 -10 25
-5 8 -10 11 -10 5z"/>
<path d="M305 5470 c-118 -12 -169 -22 -200 -40 -16 -10 -47 -21 -67 -25 -29
-6 -38 -12 -38 -27 0 -17 4 -19 27 -13 15 3 32 12 36 18 6 9 10 9 14 0 5 -15
83 -18 83 -4 0 10 47 22 109 28 25 2 63 15 87 31 43 27 56 44 32 40 -7 -1 -44
-4 -83 -8z"/>
<path d="M458 5473 c7 -3 16 -2 19 1 4 3 -2 6 -13 5 -11 0 -14 -3 -6 -6z"/>
<path d="M4610 5380 c12 -12 25 -32 30 -45 5 -14 16 -25 24 -25 8 0 20 -14 28
-30 7 -17 21 -33 30 -36 10 -3 18 -10 18 -15 0 -6 18 -29 39 -52 22 -23 51
-55 64 -72 14 -16 28 -27 31 -24 3 3 -10 23 -29 43 -19 21 -35 41 -35 43 0 3
-22 27 -49 54 -28 27 -53 58 -56 69 -4 11 -17 23 -30 26 -15 4 -22 11 -18 20
3 8 -2 17 -11 20 -9 3 -16 12 -16 19 0 7 -7 16 -16 19 -25 10 -25 7 -4 -14z"/>
<path d="M2490 5355 c-10 -12 -10 -18 0 -30 23 -27 -19 -18 -43 10 l-22 25
-100 -10 c-55 -6 -115 -12 -133 -12 -24 -1 -31 -5 -27 -16 4 -11 -4 -13 -40
-10 -25 2 -45 0 -45 -4 0 -5 -11 -8 -24 -8 -35 0 -42 -18 -10 -26 15 -4 29 -2
33 4 6 9 39 16 69 13 6 -1 12 -9 12 -18 1 -16 2 -16 15 1 8 11 27 21 42 22 61
7 93 17 93 28 0 6 4 5 9 -3 6 -9 24 -14 50 -13 41 2 64 -13 37 -24 -26 -10
-18 -31 15 -38 34 -6 70 6 50 18 -25 16 -7 21 79 23 72 1 90 -1 90 -13 0 -9
11 -14 33 -14 17 0 42 -3 53 -6 15 -4 29 2 44 18 15 16 24 19 27 11 9 -24 83
-13 83 11 0 7 6 13 14 13 8 0 12 -6 9 -13 -6 -16 27 -63 45 -64 6 0 12 5 12
10 0 6 7 10 16 10 9 0 18 9 21 20 6 21 27 22 29 2 3 -25 5 -27 13 -13 8 12 11
12 25 -1 8 -9 12 -18 9 -22 -4 -3 -3 -6 2 -6 4 0 14 8 21 18 13 16 15 16 28 0
18 -24 43 -23 57 4 l11 21 17 -26 c17 -28 34 -37 25 -13 -4 10 3 16 22 18 41
5 41 26 0 33 -19 4 -39 4 -45 0 -6 -3 -11 -1 -11 5 0 6 -8 10 -17 9 -36 -3
-53 1 -53 14 0 16 -42 20 -52 4 -5 -8 -13 -6 -27 7 -19 17 -21 17 -27 2 -6
-16 -8 -16 -25 0 -10 9 -25 14 -33 11 -9 -4 -46 -1 -83 6 -37 7 -83 12 -100
11 -18 -1 -50 -2 -72 -3 -30 -1 -40 -6 -44 -22 -8 -29 -43 -21 -39 8 3 21 0
22 -47 17 -28 -2 -52 0 -56 6 -9 14 -20 13 -35 -5z"/>
<path d="M1977 5282 c-22 -24 -21 -32 3 -32 15 0 20 7 20 25 0 30 -2 30 -23 7z"/>
<path d="M1883 5283 c9 -2 23 -2 30 0 6 3 -1 5 -18 5 -16 0 -22 -2 -12 -5z"/>
<path d="M1836 5266 c4 -12 0 -16 -15 -16 -12 0 -21 -4 -21 -10 0 -5 9 -10 20
-10 11 0 20 5 20 10 0 6 19 10 42 10 47 0 49 6 3 11 -16 2 -36 7 -43 13 -9 6
-11 4 -6 -8z"/>
<path d="M4130 5270 c0 -5 5 -10 11 -10 5 0 7 5 4 10 -3 6 -8 10 -11 10 -2 0
-4 -4 -4 -10z"/>
<path d="M3333 5243 c9 -9 19 -14 23 -11 10 10 -6 28 -24 28 -15 0 -15 -1 1
-17z"/>
<path d="M1700 5240 c-8 -5 -34 -10 -57 -10 -24 0 -43 -4 -43 -10 0 -6 33 -10
80 -10 62 0 80 3 80 14 0 8 6 17 13 19 6 3 -4 6 -23 6 -19 0 -42 -4 -50 -9z"/>
<path d="M1888 5233 c6 -2 18 -2 25 0 6 3 1 5 -13 5 -14 0 -19 -2 -12 -5z"/>
<path d="M2010 5223 c8 -3 18 -11 22 -17 4 -6 10 -7 15 -3 9 10 -16 27 -37 26
-13 -1 -13 -1 0 -6z"/>
<path d="M3395 5220 c3 -5 8 -10 11 -10 2 0 4 5 4 10 0 6 -5 10 -11 10 -5 0
-7 -4 -4 -10z"/>
<path d="M3430 5216 c0 -7 10 -16 23 -20 37 -10 41 -7 22 14 -21 23 -45 26
-45 6z"/>
<path d="M1928 5203 c7 -3 16 -2 19 1 4 3 -2 6 -13 5 -11 0 -14 -3 -6 -6z"/>
<path d="M1480 5186 c0 -8 51 -13 56 -5 3 5 -9 9 -25 9 -17 0 -31 -2 -31 -4z"/>
<path d="M9750 5177 c0 -16 60 -70 69 -61 2 2 -12 21 -32 41 -25 25 -37 31
-37 20z"/>
<path d="M1586 5165 c-3 -8 -1 -15 4 -15 6 0 10 7 10 15 0 8 -2 15 -4 15 -2 0
-6 -7 -10 -15z"/>
<path d="M1345 5160 c-4 -6 9 -10 31 -10 42 0 42 4 2 14 -15 3 -30 2 -33 -4z"/>
<path d="M1453 5153 c9 -2 23 -2 30 0 6 3 -1 5 -18 5 -16 0 -22 -2 -12 -5z"/>
<path d="M3490 5156 c0 -9 30 -14 35 -6 4 6 -3 10 -14 10 -12 0 -21 -2 -21 -4z"/>
<path d="M1130 5113 c-25 -9 -52 -18 -60 -21 -9 -4 -4 -7 14 -10 40 -5 116 17
116 34 0 17 -13 17 -70 -3z"/>
<path d="M9850 5082 c13 -18 27 -32 31 -32 4 0 33 -25 65 -56 34 -33 60 -52
62 -44 5 13 -86 99 -105 100 -7 0 -13 4 -13 9 0 5 -14 20 -32 32 l-31 23 23
-32z"/>
<path d="M1026 5079 c4 -8 -3 -9 -24 -4 -18 3 -33 2 -37 -4 -4 -7 8 -11 34
-11 21 0 41 -5 43 -11 3 -9 11 -8 28 2 l25 14 -27 3 c-16 2 -28 8 -28 13 0 5
-5 9 -11 9 -5 0 -7 -5 -3 -11z"/>
<path d="M6080 5075 c0 -10 -7 -26 -16 -36 -16 -18 -13 -49 4 -49 15 0 35 81
23 93 -8 8 -11 6 -11 -8z"/>
<path d="M4880 5056 c0 -2 7 -9 15 -16 9 -7 15 -8 15 -2 0 5 -7 12 -15 16 -8
3 -15 4 -15 2z"/>
<path d="M4420 5032 c0 -12 19 -26 26 -19 2 2 -2 10 -11 17 -9 8 -15 8 -15 2z"/>
<path d="M568 4993 c7 -3 16 -2 19 1 4 3 -2 6 -13 5 -11 0 -14 -3 -6 -6z"/>
<path d="M275 4973 c-16 -9 -32 -19 -35 -22 -7 -8 -32 -12 -128 -16 -85 -4
-112 -16 -112 -50 0 -14 9 -16 57 -12 32 2 76 9 98 15 22 6 60 13 84 15 23 2
46 9 50 15 5 8 23 9 59 3 29 -4 52 -6 52 -4 0 10 -71 73 -82 73 -7 -1 -26 -8
-43 -17z"/>
<path d="M440 4966 c-28 -28 19 -37 56 -11 12 8 25 11 29 7 5 -4 5 -2 1 5 -8
15 -71 14 -86 -1z"/>
<path d="M4480 4976 c0 -2 19 -24 43 -49 116 -124 162 -178 160 -187 -2 -5 4
-10 12 -10 8 0 20 -10 26 -22 11 -21 11 -22 -4 -9 -27 22 -20 5 27 -62 24 -34
53 -80 65 -102 12 -22 30 -53 41 -70 11 -16 24 -40 30 -53 14 -32 59 -124 70
-142 21 -37 40 -90 40 -113 0 -14 6 -32 14 -39 29 -30 64 -255 66 -428 1 -119
15 -103 37 43 14 95 13 171 -2 292 -4 34 -4 36 5 16 18 -41 21 -17 4 40 -17
60 -80 225 -95 249 -5 8 -25 45 -44 83 -19 37 -40 67 -45 67 -6 0 -10 7 -10
15 0 8 -9 24 -20 35 -11 11 -20 22 -20 25 0 10 -44 70 -57 78 -7 4 -13 14 -13
22 0 8 -9 19 -20 25 -11 6 -20 17 -20 25 0 7 -16 23 -35 35 -19 12 -35 27 -35
33 0 7 -9 18 -20 25 -12 7 -18 17 -15 22 3 5 -3 11 -13 14 -20 7 -92 72 -92
83 0 5 -14 17 -30 28 -16 11 -30 23 -30 28 0 4 -4 7 -10 7 -5 0 -10 -2 -10 -4z
m280 -311 c7 -9 8 -15 2 -15 -5 0 -12 7 -16 15 -3 8 -4 15 -2 15 2 0 9 -7 16
-15z m79 -105 c43 -64 46 -70 33 -70 -5 0 -13 10 -19 23 -6 12 -27 43 -47 70
-20 26 -36 50 -36 53 0 14 29 -19 69 -76z m90 -136 c36 -52 39 -65 11 -39 -11
10 -20 22 -20 27 0 5 -9 18 -20 30 -21 22 -27 44 -11 33 6 -3 24 -26 40 -51z
m57 -101 c-4 -4 -11 -1 -16 7 -16 25 -11 35 7 17 9 -9 13 -20 9 -24z m44 -72
c0 -12 -6 -9 -20 9 -26 33 -26 48 0 25 11 -10 20 -25 20 -34z m20 -51 c12 -23
12 -24 -3 -11 -10 7 -17 20 -17 29 0 18 3 16 20 -18z m47 -112 c-2 -7 -11 1
-20 19 -24 45 -21 64 4 26 11 -18 19 -38 16 -45z"/>
<path d="M6007 4974 c-10 -11 -8 -40 5 -84 19 -58 29 -49 26 22 -3 57 -14 79
-31 62z"/>
<path d="M1730 4876 c0 -10 28 -13 41 -5 10 6 7 9 -13 9 -16 0 -28 -2 -28 -4z"/>
<path d="M1608 4853 c7 -3 16 -2 19 1 4 3 -2 6 -13 5 -11 0 -14 -3 -6 -6z"/>
<path d="M1360 4820 c0 -5 11 -10 25 -10 14 0 25 5 25 10 0 6 -11 10 -25 10
-14 0 -25 -4 -25 -10z"/>
<path d="M1573 4763 c9 -2 23 -2 30 0 6 3 -1 5 -18 5 -16 0 -22 -2 -12 -5z"/>
<path d="M1498 4753 c7 -3 16 -2 19 1 4 3 -2 6 -13 5 -11 0 -14 -3 -6 -6z"/>
<path d="M1423 4743 c9 -2 23 -2 30 0 6 3 -1 5 -18 5 -16 0 -22 -2 -12 -5z"/>
<path d="M2100 4744 c-19 -2 -102 -9 -185 -15 -82 -6 -152 -15 -155 -18 -3 -4
-66 -15 -140 -25 -74 -10 -139 -22 -145 -26 -5 -4 -73 -15 -150 -25 -77 -9
-142 -20 -145 -24 -3 -4 -50 -13 -105 -20 -55 -7 -122 -19 -150 -26 -27 -8
-111 -22 -185 -31 -74 -9 -137 -20 -140 -24 -3 -4 -45 -12 -95 -19 -49 -7
-126 -20 -170 -31 -44 -10 -105 -21 -135 -25 -30 -3 -88 -13 -127 -22 l-73
-17 0 -114 c0 -114 0 -114 23 -108 12 4 80 11 150 16 83 7 136 15 151 25 13 9
39 15 57 15 49 0 52 0 179 8 63 5 126 4 139 0 32 -11 236 -14 280 -4 36 9 141
-19 141 -37 0 -5 7 -4 15 3 16 13 39 4 29 -12 -4 -6 1 -8 15 -3 24 7 89 -11
109 -32 7 -7 27 -13 43 -13 21 0 29 -5 30 -17 0 -11 3 -13 6 -5 9 23 33 13 33
-14 0 -24 3 -26 30 -21 16 4 32 2 35 -3 3 -6 15 -10 26 -10 10 0 19 -3 19 -8
0 -4 10 -13 21 -21 18 -11 23 -11 30 1 6 9 9 7 9 -9 0 -14 6 -23 15 -23 21 0
43 -38 51 -88 6 -39 4 -44 -15 -49 -27 -7 -29 -43 -2 -43 11 0 22 -4 25 -9 3
-5 14 -7 25 -4 11 3 21 -2 24 -11 4 -9 13 -16 22 -16 12 0 13 4 7 18 -11 20
-5 45 9 36 5 -3 9 -16 9 -30 0 -13 5 -24 10 -24 6 0 10 4 10 10 0 5 6 7 13 5
8 -4 11 -21 9 -50 l-4 -45 41 0 41 0 0 -40 c0 -39 -1 -40 -37 -41 l-38 -1 32
-9 c19 -6 41 -5 57 1 22 8 26 16 26 50 0 30 4 40 16 40 14 0 16 -9 12 -50 -3
-27 -1 -50 4 -50 5 0 7 -4 4 -9 -3 -5 -16 -7 -29 -4 -39 10 -9 -10 45 -29 29
-10 64 -18 78 -18 14 0 31 -5 38 -12 9 -9 12 2 12 49 0 60 0 61 23 50 14 -6
23 -19 23 -31 -1 -12 6 -22 17 -24 10 -2 17 3 17 12 0 10 9 16 23 16 13 0 29
6 36 13 9 8 15 8 17 2 3 -6 20 -9 40 -7 24 3 41 -1 55 -14 20 -18 20 -18 13
10 -6 26 -5 27 15 17 11 -7 21 -16 21 -21 0 -5 13 -16 30 -25 16 -8 33 -27 36
-40 7 -29 24 -34 25 -7 0 13 3 11 10 -6 5 -15 5 -30 -1 -41 -7 -13 -2 -30 15
-64 30 -55 30 -53 6 -60 -14 -3 -17 -11 -14 -30 11 -57 83 -28 83 33 0 24 5
31 28 36 15 4 37 18 49 31 21 22 43 31 43 17 0 -4 -7 -12 -16 -18 -11 -9 -13
-17 -5 -36 5 -14 10 -22 10 -18 1 4 16 1 35 -7 19 -8 41 -13 48 -10 7 2 22
-10 34 -28 11 -18 25 -31 31 -30 5 1 21 -16 34 -39 13 -22 31 -48 40 -57 20
-22 33 -52 30 -70 -1 -8 1 -17 6 -20 22 -15 73 -104 78 -138 10 -59 26 -104
44 -125 9 -10 16 -22 16 -26 0 -13 42 -62 53 -62 6 0 12 -6 15 -12 2 -7 2 19
0 57 -3 39 -9 83 -15 98 -9 23 -8 31 3 38 29 19 44 5 44 -41 0 -33 6 -51 23
-68 12 -12 26 -22 31 -22 16 0 61 46 61 62 0 30 27 40 97 36 64 -3 68 -4 71
-28 9 -87 16 -114 33 -131 30 -30 17 -77 -27 -95 -19 -8 -34 -19 -34 -25 0
-23 42 -79 59 -79 36 0 80 -31 91 -64 6 -18 21 -38 34 -44 13 -6 34 -33 47
-61 24 -49 65 -81 88 -66 6 3 11 0 11 -8 0 -8 11 -18 25 -21 30 -8 32 -29 5
-56 -11 -11 -20 -28 -21 -37 0 -16 -1 -15 -8 1 -6 15 -11 4 -20 -42 -8 -42
-17 -62 -27 -62 -8 0 -14 10 -14 24 0 15 -7 26 -20 29 -19 5 -25 25 -22 68 1
10 -11 22 -28 29 -17 7 -30 16 -30 20 0 12 -70 51 -80 45 -4 -3 -10 2 -14 10
-3 8 -15 15 -27 15 -20 0 -21 -4 -15 -42 4 -23 13 -49 20 -58 7 -8 23 -37 36
-65 13 -27 29 -61 35 -75 7 -14 16 -41 20 -60 4 -19 11 -41 16 -50 24 -46 78
-254 99 -385 35 -206 22 -516 -25 -630 -7 -16 -16 -41 -20 -54 -4 -13 -26 -50
-49 -83 -22 -32 -46 -66 -51 -76 -16 -26 -68 -82 -78 -82 -4 0 -30 -22 -57
-50 -37 -38 -45 -50 -31 -50 11 0 21 7 25 15 3 8 12 15 21 15 8 0 15 4 15 9 0
5 8 11 18 15 9 3 43 22 74 40 64 38 158 61 301 71 l88 7 -33 17 c-18 10 -46
21 -63 25 l-30 8 28 15 c16 8 37 23 48 34 10 10 23 19 28 19 15 0 23 -18 11
-25 -5 -3 -10 -17 -10 -30 0 -20 8 -26 43 -36 23 -6 71 -13 107 -15 36 -2 66
-8 68 -14 2 -5 17 -10 33 -10 23 0 32 6 40 27 35 87 40 94 84 114 25 11 43 24
40 29 -3 4 2 10 10 14 8 3 15 14 15 24 0 10 12 25 27 33 15 8 35 22 45 32 12
11 27 15 41 12 29 -8 62 17 54 39 -9 23 -58 41 -77 27 -8 -6 -25 -15 -37 -20
-11 -6 -24 -15 -28 -20 -10 -17 -54 21 -55 47 0 16 9 27 30 36 17 7 27 15 23
19 -3 4 12 15 36 24 29 11 49 28 66 57 14 23 25 35 25 28 0 -8 5 -10 13 -5 6
4 17 8 22 8 30 2 123 40 118 48 -8 12 47 0 65 -15 16 -14 -26 -58 -60 -61 -36
-4 -68 -26 -68 -47 0 -11 -4 -20 -10 -20 -5 0 -10 -6 -10 -14 0 -9 26 -18 81
-28 100 -18 129 -14 129 18 0 40 20 38 22 -3 1 -36 1 -36 5 -6 5 36 25 57 57
58 15 0 21 6 20 22 0 18 2 20 13 12 9 -8 17 -8 27 0 17 15 106 3 113 -16 7
-17 -6 -83 -15 -81 -20 5 -103 -15 -109 -27 -11 -18 -74 -34 -99 -25 -18 7
-20 4 -19 -29 0 -20 4 -41 8 -48 4 -6 1 -14 -5 -17 -7 -3 0 -3 15 -1 16 2 37
15 48 29 12 16 26 22 39 19 10 -3 40 2 66 11 60 20 100 20 108 1 3 -9 11 -15
18 -14 28 3 38 -2 38 -20 0 -10 6 -23 13 -28 16 -13 87 -50 108 -56 11 -4 15
-13 12 -30 -4 -21 -12 -26 -47 -31 -24 -4 -62 -3 -85 3 -39 8 -42 7 -65 -22
-23 -29 -28 -31 -92 -29 -52 1 -75 -3 -99 -18 -18 -11 -45 -20 -59 -20 -49 0
-66 -16 -66 -64 0 -39 3 -45 30 -56 17 -7 30 -19 30 -26 0 -23 64 -17 92 8 51
46 63 49 89 22 20 -22 29 -24 63 -18 23 3 51 13 63 21 39 26 92 9 154 -50 30
-29 60 -64 68 -79 8 -16 19 -28 24 -28 5 0 18 -11 28 -24 11 -14 33 -27 49
-31 17 -4 30 -12 30 -20 0 -14 95 -49 110 -40 5 3 17 -4 28 -15 12 -13 25 -18
36 -14 10 4 28 1 41 -6 19 -10 27 -10 39 -1 23 19 96 23 103 5 3 -8 11 -14 17
-14 15 0 50 -38 59 -62 5 -14 1 -18 -14 -18 -19 0 -20 -4 -15 -33 3 -17 7 -38
8 -45 1 -8 11 -18 24 -22 13 -5 33 -32 49 -66 l27 -57 81 5 c45 2 90 3 100 0
25 -5 11 -22 -21 -23 l-27 -1 30 -8 c17 -4 223 -8 459 -9 420 -1 429 -1 410
18 -11 10 -31 24 -45 31 -13 7 -31 19 -39 27 -20 19 -162 118 -189 133 -13 6
-31 20 -42 31 -10 10 -26 19 -34 19 -8 0 -19 9 -25 20 -6 11 -16 20 -23 20
-11 0 -78 48 -119 84 -10 9 -21 16 -24 16 -10 0 -108 73 -117 87 -4 7 -14 13
-20 13 -7 0 -40 22 -74 49 -33 27 -71 54 -83 61 -12 7 -48 32 -80 56 -32 24
-61 44 -64 44 -4 0 -30 16 -59 35 -28 20 -59 40 -67 45 -8 5 -32 21 -53 35
-21 13 -52 32 -69 41 -18 9 -39 23 -47 31 -8 9 -27 20 -43 25 -15 6 -28 14
-28 19 0 4 -17 16 -37 26 -21 9 -42 21 -48 26 -9 7 -37 26 -90 59 -11 7 -34
23 -52 35 -17 13 -43 27 -57 33 -14 5 -26 14 -26 19 0 5 -17 16 -37 24 -21 8
-47 24 -57 36 -11 12 -24 21 -30 21 -6 0 -29 14 -50 30 -22 17 -44 30 -49 30
-6 0 -18 6 -26 13 -9 7 -36 22 -61 32 -25 11 -47 22 -50 26 -3 3 -26 13 -53
22 -44 15 -91 47 -68 47 5 0 16 -6 23 -13 16 -17 72 -32 64 -18 -9 14 -116 52
-127 46 -5 -4 -9 1 -9 9 0 9 -4 16 -10 16 -16 0 -23 2 -47 11 -14 5 -23 4 -25
-3 -3 -7 -28 -7 -88 1 -46 6 -122 11 -169 11 -64 0 -82 3 -73 12 8 8 5 18 -13
40 -14 16 -25 38 -25 48 0 15 8 18 48 18 26 0 59 3 74 6 15 4 29 2 33 -3 3 -5
31 -12 63 -16 31 -3 75 -8 97 -11 30 -4 36 -2 25 5 -8 6 -27 11 -42 11 -15 0
-30 5 -33 10 -3 6 -22 10 -41 10 -24 0 -34 5 -34 15 0 15 0 15 -154 19 -41 1
-50 5 -57 24 -18 48 -5 54 104 50 69 -2 102 -7 105 -15 5 -17 43 -17 39 0 -5
29 -42 37 -150 35 -107 -3 -109 -2 -122 22 -17 32 -29 112 -20 139 5 17 15 21
48 23 l42 1 -45 6 -45 6 -7 55 c-4 30 -8 71 -9 90 -2 19 -14 55 -27 80 -23 40
-26 59 -29 172 l-3 127 35 28 c19 15 35 33 35 38 0 6 9 16 20 23 17 10 20 10
20 -3 0 -8 -4 -15 -9 -15 -5 0 -11 -6 -14 -14 -9 -24 30 -10 62 21 50 50 61
84 61 180 0 48 -7 113 -15 143 -8 30 -15 69 -15 86 0 16 -8 57 -19 90 -10 32
-27 88 -36 124 -38 138 -174 445 -221 501 -8 8 -14 20 -14 26 0 6 -7 17 -16
24 -9 7 -20 22 -25 34 -33 71 -174 263 -200 273 -5 2 -9 8 -9 13 0 33 -380
359 -418 359 -5 0 -12 7 -16 15 -3 8 -12 15 -20 15 -8 0 -27 10 -43 23 -15 13
-43 29 -60 36 -18 8 -33 16 -33 20 0 4 -22 15 -50 25 -27 10 -50 21 -50 25 0
4 -27 16 -60 26 -33 10 -60 21 -60 25 0 4 -29 16 -65 25 -36 10 -65 21 -65 25
0 4 -44 15 -97 25 -54 10 -100 22 -103 26 -14 21 -506 47 -630 33z m115 -280
c102 -20 269 -42 332 -45 16 0 16 -1 -2 -9 -14 -6 2 -9 50 -9 46 -1 89 -8 125
-22 30 -12 72 -26 93 -32 20 -6 37 -15 37 -19 0 -4 6 -8 14 -8 7 0 27 -7 42
-15 16 -8 46 -18 67 -22 21 -3 41 -12 44 -19 3 -8 18 -14 34 -14 15 0 38 -4
51 -9 13 -5 43 -15 68 -22 25 -7 49 -16 55 -21 5 -4 20 -8 33 -8 15 0 21 -4
16 -12 -4 -6 -3 -8 4 -4 14 8 65 -12 57 -23 -3 -6 3 -9 12 -9 24 2 94 -32 88
-42 -3 -5 9 -12 27 -15 18 -4 45 -20 61 -36 16 -16 35 -29 43 -29 8 0 14 -9
14 -21 0 -11 5 -17 10 -14 6 3 10 2 10 -4 0 -5 9 -13 20 -16 11 -4 18 -10 15
-15 -7 -11 22 -33 34 -26 5 3 7 -2 4 -12 -3 -14 5 -23 30 -35 19 -9 46 -35 62
-57 15 -22 32 -40 36 -40 11 0 89 -82 89 -92 0 -5 7 -8 15 -8 9 0 21 -11 27
-25 6 -13 19 -27 30 -30 10 -4 18 -14 18 -23 0 -9 12 -27 27 -39 14 -13 22
-23 18 -23 -5 0 0 -9 11 -20 30 -30 44 -48 44 -57 0 -4 17 -33 38 -63 43 -62
88 -150 84 -164 -2 -5 1 -12 5 -15 12 -9 30 -40 64 -111 18 -36 38 -77 46 -92
8 -15 14 -31 14 -35 0 -5 9 -39 22 -78 29 -93 32 -275 4 -302 -16 -16 -17 -16
-17 0 0 10 7 31 15 47 13 24 13 42 5 102 -19 134 -66 257 -167 433 -12 22 -26
47 -29 55 -4 8 -15 24 -24 35 -26 31 -90 144 -90 160 0 8 -9 20 -20 27 -11 7
-20 21 -20 30 0 10 -5 18 -10 18 -6 0 -13 8 -17 18 -7 18 -41 52 -107 105 -55
44 -226 216 -226 227 0 5 -9 12 -20 15 -11 3 -20 11 -20 17 0 6 -29 39 -64 72
-87 83 -98 91 -143 112 -21 10 -40 21 -43 24 -3 4 -36 18 -75 31 -38 13 -72
27 -75 30 -3 4 -42 15 -87 25 -46 10 -83 22 -83 26 0 5 -8 8 -18 8 -65 0 -334
111 -355 147 -5 8 -29 13 -67 13 -66 0 -194 18 -225 31 -28 12 -181 39 -220
39 -18 0 -37 6 -43 13 -7 8 -64 13 -199 15 -103 2 -190 6 -193 9 -3 3 81 4
185 3 151 -2 215 -7 310 -26z m541 -475 c3 -5 -2 -12 -10 -15 -9 -3 -16 -14
-16 -24 0 -21 -20 -21 -44 -1 -15 13 -15 16 4 36 21 22 53 24 66 4z m196 -211
c-5 -33 -31 -68 -52 -68 -5 0 -10 5 -10 12 0 9 -3 9 -12 0 -7 -7 -20 -12 -31
-12 -10 0 -16 -3 -14 -7 2 -5 -4 -16 -14 -25 -17 -16 -19 -16 -33 4 -8 12 -13
25 -10 30 3 4 -2 11 -10 14 -34 13 -5 63 37 64 9 0 17 5 17 10 0 6 29 10 68
10 l69 0 -5 -32z m34 -8 c5 0 10 -8 12 -20 2 -11 10 -20 18 -20 8 0 30 -16 49
-35 26 -25 35 -43 35 -67 0 -18 3 -43 6 -55 5 -17 2 -23 -9 -23 -8 0 -27 -14
-41 -31 -14 -17 -26 -27 -26 -23 0 5 -5 3 -12 -4 -7 -7 -19 -12 -28 -12 -9 0
-30 -15 -46 -34 -25 -28 -29 -40 -26 -71 3 -29 1 -36 -9 -33 -17 6 -35 101
-20 106 6 2 7 10 1 20 -5 9 -17 43 -26 75 l-17 58 26 25 c15 14 27 29 27 35 0
6 4 8 9 4 5 -3 12 -1 16 5 3 5 14 10 25 10 10 0 20 7 24 15 3 8 1 15 -4 15 -6
0 -10 19 -10 43 0 27 3 37 9 29 4 -8 12 -13 17 -12z m-716 -130 c0 -5 -4 -10
-10 -10 -5 0 -10 5 -10 10 0 6 5 10 10 10 6 0 10 -4 10 -10z m1278 -902 c-6
-18 -28 -21 -28 -4 0 9 7 16 16 16 9 0 14 -5 12 -12z m668 -476 c0 -15 3 -61
7 -102 5 -58 4 -67 -4 -40 -12 44 -22 186 -12 176 5 -4 8 -20 9 -34z m34 -237
c6 -26 5 -35 -3 -32 -7 2 -13 21 -15 43 -4 46 6 40 18 -11z m140 -749 c0 -2
-11 -11 -25 -20 -24 -16 -25 -16 -25 4 0 15 7 20 25 20 14 0 25 -2 25 -4z
m637 -202 c-3 -3 -12 -4 -19 -1 -8 3 -5 6 6 6 11 1 17 -2 13 -5z m-1022 -153
c3 -5 0 -21 -6 -35 -9 -19 -20 -26 -41 -26 -33 0 -44 19 -28 49 11 22 63 30
75 12z m1925 -728 c-1 -24 -2 -26 -11 -10 -5 9 -7 22 -4 27 10 17 15 11 15
-17z m312 -122 c2 -22 -2 -36 -10 -39 -10 -3 -12 4 -7 31 5 27 3 37 -10 45
-11 5 -15 14 -10 21 10 18 32 -17 37 -58z"/>
<path d="M2968 3513 c6 -2 18 -2 25 0 6 3 1 5 -13 5 -14 0 -19 -2 -12 -5z"/>
<path d="M1178 4703 c6 -2 18 -2 25 0 6 3 1 5 -13 5 -14 0 -19 -2 -12 -5z"/>
<path d="M505 4690 c-3 -5 1 -10 9 -10 9 0 16 5 16 10 0 6 -4 10 -9 10 -6 0
-13 -4 -16 -10z"/>
<path d="M1018 4673 c7 -3 16 -2 19 1 4 3 -2 6 -13 5 -11 0 -14 -3 -6 -6z"/>
<path d="M6545 4540 c3 -5 13 -10 21 -10 8 0 12 5 9 10 -3 6 -13 10 -21 10 -8
0 -12 -4 -9 -10z"/>
<path d="M4471 4504 c0 -11 3 -14 6 -6 3 7 2 16 -1 19 -3 4 -6 -2 -5 -13z"/>
<path d="M6144 4182 c5 -8 66 -4 66 4 0 2 -16 4 -36 4 -19 0 -33 -4 -30 -8z"/>
<path d="M4551 4088 c-1 -16 2 -28 7 -28 4 0 7 -24 7 -54 0 -30 -3 -52 -7 -50
-6 4 -49 -28 -86 -63 -7 -7 -26 -20 -42 -30 -17 -9 -30 -21 -30 -25 0 -4 -7
-5 -14 -2 -13 5 -13 1 -3 -25 6 -17 15 -31 19 -31 4 0 8 -5 8 -10 0 -6 9 -29
20 -53 28 -61 81 -205 92 -254 11 -48 38 -80 38 -44 0 12 5 19 10 16 6 -3 10
3 10 14 0 19 6 21 51 21 l51 0 -7 38 c-4 20 -12 44 -19 52 -8 8 -16 33 -19 55
l-6 40 19 -25 c11 -14 20 -29 20 -34 0 -6 5 -5 12 2 9 9 9 15 0 24 -15 15 -16
58 -1 58 17 0 1 71 -21 95 -9 11 -23 30 -29 43 -6 12 -18 22 -25 22 -17 0 -27
33 -16 51 5 7 4 22 0 35 -7 16 -3 27 12 44 17 19 19 26 10 41 -8 12 -8 19 -2
19 19 0 10 28 -15 44 -14 9 -25 13 -26 9 0 -5 -4 1 -9 12 -8 18 -9 17 -9 -7z
m59 -398 c0 -11 -4 -20 -10 -20 -5 0 -10 2 -10 4 0 2 -3 11 -6 20 -4 11 -1 16
10 16 9 0 16 -8 16 -20z"/>
<path d="M7570 4070 c0 -5 5 -10 11 -10 5 0 7 5 4 10 -3 6 -8 10 -11 10 -2 0
-4 -4 -4 -10z"/>
<path d="M7660 4000 c0 -5 5 -10 10 -10 6 0 10 5 10 10 0 6 -4 10 -10 10 -5 0
-10 -4 -10 -10z"/>
<path d="M7690 3973 c8 -3 20 -12 27 -20 6 -8 17 -12 24 -7 16 10 -17 34 -45
33 -15 0 -16 -2 -6 -6z"/>
<path d="M4670 3951 c0 -5 5 -13 10 -16 6 -3 10 -2 10 4 0 5 -4 13 -10 16 -5
3 -10 2 -10 -4z"/>
<path d="M7750 3930 c0 -5 4 -10 9 -10 4 0 21 -11 37 -25 16 -14 40 -34 54
-45 14 -12 39 -33 56 -48 18 -15 54 -43 80 -62 27 -19 53 -41 57 -47 4 -7 15
-13 22 -13 8 0 15 -3 15 -7 0 -5 17 -19 37 -33 20 -14 48 -35 61 -47 14 -13
31 -23 38 -23 8 0 14 -4 14 -10 0 -5 6 -10 13 -10 6 0 -9 20 -34 43 -25 24
-43 49 -41 57 3 7 0 10 -6 6 -6 -3 -23 9 -39 29 -15 19 -41 40 -57 47 -16 6
-43 25 -60 42 -63 61 -151 123 -168 118 -5 -1 -8 3 -8 9 0 5 -16 17 -35 25
-41 17 -45 17 -45 4z"/>
<path d="M4625 3911 c-4 -7 -2 -18 4 -24 6 -6 11 -19 11 -29 0 -10 5 -18 10
-18 15 0 12 43 -3 65 -11 13 -16 15 -22 6z"/>
<path d="M238 3833 c45 -2 119 -2 165 0 45 1 8 3 -83 3 -91 0 -128 -2 -82 -3z"/>
<path d="M513 3833 c9 -2 25 -2 35 0 9 3 1 5 -18 5 -19 0 -27 -2 -17 -5z"/>
<path d="M27 3823 c18 -2 50 -2 70 0 21 2 7 4 -32 4 -38 0 -55 -2 -38 -4z"/>
<path d="M663 3823 c15 -2 37 -2 50 0 12 2 0 4 -28 4 -27 0 -38 -2 -22 -4z"/>
<path d="M308 3813 c39 -2 105 -2 145 0 39 1 7 3 -73 3 -80 0 -112 -2 -72 -3z"/>
<path d="M778 3813 c7 -3 16 -2 19 1 4 3 -2 6 -13 5 -11 0 -14 -3 -6 -6z"/>
<path d="M55 3800 c-4 -6 8 -10 30 -10 22 0 34 4 30 10 -3 6 -17 10 -30 10
-13 0 -27 -4 -30 -10z"/>
<path d="M560 3801 c0 -4 39 -11 88 -15 118 -8 243 -25 267 -36 25 -12 235
-44 241 -37 3 2 -25 10 -61 17 -36 7 -65 16 -65 20 0 4 -71 15 -157 25 -87 9
-166 21 -175 26 -22 11 -138 12 -138 0z"/>
<path d="M850 3800 c0 -5 12 -10 28 -10 21 0 24 2 12 10 -20 13 -40 13 -40 0z"/>
<path d="M52 3773 c-39 -3 -52 -8 -52 -20 0 -12 8 -14 47 -8 73 11 505 9 623
-3 177 -18 295 -34 305 -42 6 -4 60 -15 120 -25 61 -10 112 -22 115 -26 3 -3
39 -12 80 -18 41 -7 97 -19 123 -28 43 -13 70 -12 55 2 -6 6 -144 39 -278 66
-52 10 -104 23 -115 28 -21 10 -45 14 -195 33 -52 6 -97 15 -100 19 -14 20
-531 35 -728 22z"/>
<path d="M1547 3751 c-2 -10 -1 -25 4 -32 6 -10 9 -4 9 19 0 36 -5 42 -13 13z"/>
<path d="M343 3733 c3 -5 -73 -7 -169 -6 l-174 1 0 -44 c0 -31 4 -44 14 -44 8
0 16 4 18 9 5 15 261 24 423 16 81 -4 142 -11 135 -15 -6 -4 23 -10 67 -13
121 -8 267 -28 279 -38 6 -5 49 -13 95 -18 113 -13 210 -29 234 -40 11 -5 65
-17 120 -26 55 -10 105 -21 110 -25 6 -4 48 -15 95 -24 90 -18 248 -63 265
-76 6 -4 39 -15 74 -24 36 -8 67 -19 70 -24 3 -4 26 -14 51 -21 25 -8 54 -20
65 -26 11 -7 38 -18 60 -25 22 -7 45 -18 50 -24 6 -7 33 -20 60 -30 28 -11 53
-25 58 -32 4 -7 23 -18 42 -24 19 -6 35 -16 35 -21 0 -5 8 -9 18 -9 14 1 12 4
-8 21 -14 11 -32 26 -41 33 -17 14 -139 82 -238 132 -36 19 -94 41 -130 50
-37 9 -68 19 -71 23 -3 4 -30 15 -60 24 -94 28 -214 68 -245 82 -16 7 -48 17
-70 22 -25 6 -39 14 -37 22 2 10 -6 12 -32 8 -20 -3 -38 -1 -41 4 -4 5 -19 9
-34 9 -15 0 -31 4 -36 8 -18 15 -93 35 -110 28 -9 -3 -14 -2 -11 3 6 10 -20
16 -131 34 -40 6 -73 14 -73 19 0 8 -40 16 -110 22 -80 7 -145 19 -164 29 -22
11 -196 21 -313 19 -40 -1 -75 3 -78 8 -3 6 -20 10 -36 10 -17 0 -28 -3 -26
-7z m54 -9 c-3 -3 -12 -4 -19 -1 -8 3 -5 6 6 6 11 1 17 -2 13 -5z m198 -24
c48 -7 47 -7 -25 -8 -41 0 -102 4 -135 8 l-60 7 85 1 c47 0 108 -3 135 -8z
m128 -17 c-13 -2 -35 -2 -50 0 -16 2 -5 4 22 4 28 0 40 -2 28 -4z m74 -9 c-3
-3 -12 -4 -19 -1 -8 3 -5 6 6 6 11 1 17 -2 13 -5z"/>
<path d="M1684 3718 c4 -13 8 -34 9 -48 2 -21 7 -25 35 -27 36 -1 45 21 12 30
-11 3 -20 12 -20 21 0 9 8 16 20 16 11 0 20 7 20 15 0 11 -11 15 -41 15 -38 0
-41 -2 -35 -22z"/>
<path d="M4723 3710 c1 -11 5 -20 9 -20 11 0 10 28 -1 35 -6 3 -9 -4 -8 -15z"/>
<path d="M5125 3706 c-3 -9 -7 -23 -10 -32 -3 -9 -10 -47 -15 -85 -5 -37 -17
-83 -26 -102 -21 -45 -12 -91 26 -137 35 -40 40 -23 11 36 -21 44 -18 110 13
253 9 41 14 76 11 79 -2 3 -7 -3 -10 -12z"/>
<path d="M1195 3700 c-3 -5 1 -10 10 -10 9 0 13 5 10 10 -3 6 -8 10 -10 10 -2
0 -7 -4 -10 -10z"/>
<path d="M1498 3703 c7 -3 16 -2 19 1 4 3 -2 6 -13 5 -11 0 -14 -3 -6 -6z"/>
<path d="M1555 3701 c-27 -7 -25 -9 33 -21 34 -7 62 -17 62 -21 0 -5 5 -9 10
-9 6 0 10 9 10 20 0 16 -7 20 -35 20 -19 0 -35 5 -35 10 0 11 -1 11 -45 1z"/>
<path d="M4796 3694 c-3 -9 -2 -23 4 -32 7 -14 9 -10 10 16 0 35 -5 41 -14 16z"/>
<path d="M4941 3694 c0 -11 3 -14 6 -6 3 7 2 16 -1 19 -3 4 -6 -2 -5 -13z"/>
<path d="M6200 3650 c0 -5 14 -10 30 -10 17 0 30 5 30 10 0 6 -13 10 -30 10
-16 0 -30 -4 -30 -10z"/>
<path d="M195 3630 c-55 -4 -121 -8 -147 -9 -44 -1 -48 -3 -48 -26 l0 -25 217
0 c220 0 443 -16 443 -31 0 -5 -23 -9 -51 -9 -27 0 -48 4 -45 9 9 13 -113 21
-346 21 l-218 0 0 -66 0 -66 138 7 c204 10 380 9 442 -3 118 -22 129 -25 125
-33 -3 -4 -1 -10 5 -14 13 -8 13 -75 0 -75 -5 0 -10 -7 -10 -15 0 -8 -9 -20
-20 -27 -11 -7 -20 -18 -20 -25 0 -22 -65 -19 -89 4 -12 12 -29 14 -90 9 -42
-4 -80 -11 -85 -17 -6 -5 -21 -9 -35 -9 -30 0 -93 -21 -103 -35 -4 -5 -13 -10
-20 -10 -7 0 -16 -19 -21 -42 -7 -40 -6 -45 20 -68 15 -13 34 -22 41 -20 7 3
33 -2 58 -11 25 -8 54 -12 65 -9 12 4 56 2 98 -4 42 -6 116 -15 166 -21 49 -6
95 -16 101 -21 6 -5 49 -14 95 -20 46 -5 102 -14 124 -19 22 -5 61 -10 86 -10
29 0 49 -5 52 -13 3 -8 42 -18 98 -27 52 -7 103 -19 114 -26 11 -7 39 -17 63
-24 23 -6 42 -15 42 -20 0 -14 38 -12 42 2 3 7 9 8 18 3 16 -10 41 -15 83 -18
15 -1 27 -6 27 -11 0 -16 65 -95 78 -96 7 0 20 -13 31 -30 10 -16 21 -27 24
-23 4 3 7 -3 7 -15 0 -36 11 -52 36 -52 15 0 24 -6 24 -15 0 -21 18 -19 23 3
3 9 5 3 6 -14 1 -18 7 -34 16 -38 8 -3 15 -9 14 -13 -3 -20 2 -27 11 -13 12
20 21 9 27 -38 4 -31 9 -39 22 -35 13 3 21 -6 31 -36 7 -23 17 -41 22 -41 4 0
9 -19 9 -42 1 -39 2 -40 8 -13 l7 30 8 -25 c5 -14 12 -27 15 -30 15 -11 50
-80 41 -80 -6 0 -10 -11 -10 -25 0 -14 5 -25 10 -25 6 0 10 -10 9 -22 -5 -51
1 -88 14 -88 12 0 37 -52 43 -89 2 -7 7 -18 13 -24 6 -6 11 -30 11 -53 0 -24
4 -45 9 -48 15 -10 33 -92 37 -172 5 -104 5 -107 16 -121 6 -7 5 -19 -1 -32
-6 -11 -11 -35 -11 -55 0 -19 -4 -37 -9 -40 -5 -4 -1 -23 9 -44 10 -21 22 -50
25 -65 4 -14 13 -31 21 -38 8 -6 14 -17 14 -24 0 -7 12 -37 28 -66 25 -50 42
-87 94 -209 11 -25 28 -63 39 -86 10 -23 19 -46 19 -53 0 -6 9 -28 20 -48 11
-21 20 -46 20 -55 0 -10 5 -26 10 -36 20 -32 82 -217 106 -312 13 -52 33 -122
44 -155 10 -33 24 -86 29 -118 6 -32 13 -62 16 -68 4 -5 409 -9 1053 -9 836 0
1043 3 1026 13 -12 6 -43 25 -70 40 -27 15 -69 39 -94 54 -96 55 -295 153
-311 153 -9 0 -22 7 -29 15 -7 8 -31 20 -54 26 -22 6 -59 19 -81 29 -22 10
-68 24 -103 30 -34 7 -65 17 -68 21 -9 15 -201 10 -257 -7 -47 -13 -111 -40
-159 -65 -10 -5 -24 -9 -32 -9 -7 0 -16 -9 -19 -21 -8 -31 -41 -21 -45 14 -2
15 -8 27 -13 27 -5 0 -9 6 -7 13 1 6 -3 22 -10 35 -11 19 -10 26 5 47 10 13
21 25 26 25 4 0 21 13 39 30 17 16 36 30 42 31 6 0 22 14 35 30 l24 30 -39 -7
c-22 -4 -52 -16 -69 -28 -16 -11 -32 -21 -35 -21 -3 0 -15 -10 -28 -23 -12
-12 -27 -22 -32 -22 -17 0 -11 19 11 38 11 9 30 25 41 34 12 10 29 18 38 18 9
0 26 9 39 21 12 11 34 24 50 29 32 9 188 26 211 22 25 -3 166 11 152 15 -6 3
-10 8 -8 12 8 13 -280 7 -296 -6 -10 -9 -18 -9 -25 -2 -7 7 -19 5 -39 -5 -16
-8 -50 -21 -76 -28 -30 -8 -51 -20 -59 -35 -7 -13 -18 -23 -24 -23 -7 0 -18
-7 -25 -15 -18 -21 -33 -19 -27 5 3 13 0 20 -9 20 -17 0 -28 41 -19 69 3 12 2
21 -3 21 -6 0 -7 14 -2 36 8 34 7 35 -15 30 -29 -7 -38 13 -20 45 8 13 18 31
22 39 4 8 15 24 25 34 27 30 14 31 -29 2 -38 -26 -58 -20 -29 10 18 17 22 39
6 29 -5 -3 -10 1 -10 9 0 23 -9 20 -36 -11 l-24 -28 0 25 c0 25 31 78 79 134
38 43 105 106 114 106 4 0 19 12 32 26 28 31 32 89 14 204 -5 36 -14 97 -19
135 -5 39 -15 88 -23 110 -8 22 -17 61 -21 87 -4 26 -11 50 -17 53 -5 4 -9 15
-9 26 0 39 -110 295 -175 407 -33 57 -113 174 -146 213 -22 26 -39 49 -39 52
0 11 -193 210 -240 247 -17 14 -48 40 -68 57 -20 18 -43 33 -49 33 -7 0 -13 4
-13 10 0 5 -15 17 -32 26 -18 9 -36 21 -39 26 -6 9 -75 48 -131 74 -21 9 -38
21 -38 26 0 4 -5 8 -12 8 -13 0 -98 39 -113 53 -17 15 -88 55 -128 73 -20 9
-37 20 -37 24 0 4 -18 15 -41 24 -38 15 -80 46 -63 46 4 0 36 -13 71 -30 34
-16 71 -30 80 -30 9 0 13 -3 9 -7 -6 -7 29 -27 122 -72 23 -11 42 -25 42 -31
0 -6 5 -8 11 -5 6 4 16 0 22 -8 7 -8 23 -17 37 -20 24 -6 23 -5 -5 18 -17 13
-36 24 -43 25 -7 0 -27 13 -45 30 -18 16 -36 30 -42 30 -22 1 -136 78 -123 83
7 3 3 6 -10 6 -13 1 -21 5 -18 9 6 11 -30 42 -49 42 -7 0 -17 5 -20 10 -3 6
-21 10 -38 10 -18 0 -27 4 -22 8 20 15 10 47 -20 61 -56 28 -160 62 -230 77
-38 8 -71 18 -75 22 -3 5 -43 17 -90 27 -47 10 -89 22 -95 26 -5 4 -35 12 -65
18 -30 5 -77 17 -105 26 -62 19 -191 45 -227 45 -14 0 -28 4 -30 10 -3 11
-156 36 -280 46 -43 4 -75 11 -72 15 3 5 -5 9 -18 10 -13 0 -77 5 -143 10
-193 16 -225 17 -330 9z m93 -37 c-21 -2 -55 -2 -75 0 -21 2 -4 4 37 4 41 0
58 -2 38 -4z m220 -10 c-10 -2 -26 -2 -35 0 -10 3 -2 5 17 5 19 0 27 -2 18 -5z
m115 -10 c-13 -2 -33 -2 -45 0 -13 2 -3 4 22 4 25 0 35 -2 23 -4z m80 -10 c-7
-2 -21 -2 -30 0 -10 3 -4 5 12 5 17 0 24 -2 18 -5z m167 -23 c0 -5 -7 -10 -16
-10 -8 0 -12 5 -9 10 3 6 10 10 16 10 5 0 9 -4 9 -10z m-152 -17 c-10 -2 -26
-2 -35 0 -10 3 -2 5 17 5 19 0 27 -2 18 -5z m205 0 c-7 -2 -21 -2 -30 0 -10 3
-4 5 12 5 17 0 24 -2 18 -5z m-150 -10 c-7 -2 -19 -2 -25 0 -7 3 -2 5 12 5 14
0 19 -2 13 -5z m214 1 c-3 -3 -12 -4 -19 -1 -8 3 -5 6 6 6 11 1 17 -2 13 -5z
m-114 -11 c-7 -2 -21 -2 -30 0 -10 3 -4 5 12 5 17 0 24 -2 18 -5z m354 -39
c-3 -3 -12 -4 -19 -1 -8 3 -5 6 6 6 11 1 17 -2 13 -5z m66 -11 c-7 -2 -19 -2
-25 0 -7 3 -2 5 12 5 14 0 19 -2 13 -5z m62 -13 c3 -5 -3 -10 -14 -10 -12 0
-21 5 -21 10 0 6 6 10 14 10 8 0 18 -4 21 -10z m98 -27 c-7 -2 -19 -2 -25 0
-7 3 -2 5 12 5 14 0 19 -2 13 -5z m77 -13 c8 -5 11 -12 8 -16 -4 -3 -14 1 -23
10 -18 17 -9 21 15 6z m307 -96 c-3 -3 -12 -4 -19 -1 -8 3 -5 6 6 6 11 1 17
-2 13 -5z m118 -35 c5 -5 -1 -9 -17 -9 -14 0 -29 7 -32 16 -5 12 -1 14 17 9
12 -4 26 -11 32 -16z m-35 -669 c0 -5 -5 -10 -11 -10 -5 0 -7 5 -4 10 3 6 8
10 11 10 2 0 4 -4 4 -10z"/>
<path d="M4710 3606 c0 -8 4 -17 9 -20 10 -7 23 19 14 28 -11 11 -23 6 -23 -8z"/>
<path d="M5649 3603 c-13 -17 -13 -17 6 -3 11 8 22 16 24 17 2 2 0 3 -6 3 -6
0 -17 -8 -24 -17z"/>
<path d="M1545 3570 c3 -5 8 -10 11 -10 2 0 4 5 4 10 0 6 -5 10 -11 10 -5 0
-7 -4 -4 -10z"/>
<path d="M8260 3542 c0 -12 19 -26 26 -19 2 2 -2 10 -11 17 -9 8 -15 8 -15 2z"/>
<path d="M4740 3500 c0 -23 -7 -42 -20 -53 -21 -18 -27 -56 -11 -72 5 -6 11
-23 14 -40 3 -24 4 -22 6 12 0 23 8 48 16 57 24 23 29 70 11 102 l-15 29 -1
-35z"/>
<path d="M5798 3513 c7 -3 16 -2 19 1 4 3 -2 6 -13 5 -11 0 -14 -3 -6 -6z"/>
<path d="M4690 3495 c0 -8 5 -15 10 -15 6 0 10 7 10 15 0 8 -4 15 -10 15 -5 0
-10 -7 -10 -15z"/>
<path d="M5720 3503 c-8 -3 -18 -11 -22 -16 -4 -7 -12 -6 -22 2 -11 9 -16 10
-16 2 0 -6 6 -11 13 -12 6 0 -5 -7 -25 -16 -21 -8 -38 -19 -38 -24 0 -5 -7 -9
-15 -9 -26 0 -126 -96 -150 -144 -19 -37 -19 -42 0 -26 8 7 15 17 15 22 0 10
44 54 113 111 22 18 45 38 53 45 7 7 34 20 59 28 25 9 45 20 45 24 0 5 8 11
18 13 11 3 12 5 2 5 -8 0 -22 -2 -30 -5z"/>
<path d="M8310 3495 c0 -8 9 -19 21 -25 29 -16 29 -9 2 17 -16 16 -23 18 -23
8z"/>
<path d="M4785 3448 c-14 -41 -8 -98 10 -98 11 0 15 12 15 49 0 47 -15 77 -25
49z"/>
<path d="M8413 3448 c8 -23 -4 -31 -19 -10 -7 9 -16 14 -19 10 -9 -8 38 -52
80 -75 33 -18 88 -26 79 -12 -3 5 -15 9 -28 9 -23 0 -56 28 -56 47 0 5 -10 18
-22 29 -18 16 -20 16 -15 2z"/>
<path d="M4667 3401 c-3 -13 -1 -18 9 -14 7 2 10 11 7 19 -7 19 -10 18 -16 -5z"/>
<path d="M8477 3394 c3 -7 9 -14 14 -14 14 0 10 17 -5 23 -10 4 -13 1 -9 -9z"/>
<path d="M9931 3340 c-1 -77 8 -142 20 -135 9 6 2 130 -11 171 -7 24 -8 17 -9
-36z"/>
<path d="M2450 3371 c0 -12 5 -21 10 -21 6 0 10 6 10 14 0 8 -4 18 -10 21 -5
3 -10 -3 -10 -14z"/>
<path d="M4558 3353 c3 -24 11 -37 23 -40 11 -3 19 -10 19 -15 0 -5 -5 -6 -11
-2 -12 7 -6 -66 11 -141 5 -22 14 -85 20 -139 10 -93 20 -137 20 -89 0 11 7
26 15 33 8 7 15 21 15 32 0 10 7 21 15 24 12 5 15 27 15 111 0 93 -2 104 -15
93 -13 -11 -15 -7 -15 24 0 34 -29 80 -47 74 -4 -2 -11 11 -14 27 -5 24 -7 26
-8 7 -1 -27 -21 -20 -21 8 0 10 -6 20 -13 23 -9 3 -12 -5 -9 -30z m83 -150
c11 -30 4 -77 -11 -68 -10 6 -14 95 -5 95 3 0 10 -12 16 -27z"/>
<path d="M8550 3341 c0 -5 5 -13 10 -16 6 -3 10 -2 10 4 0 5 -4 13 -10 16 -5
3 -10 2 -10 -4z"/>
<path d="M9030 3340 c0 -5 5 -10 11 -10 5 0 7 5 4 10 -3 6 -8 10 -11 10 -2 0
-4 -4 -4 -10z"/>
<path d="M5046 3295 c-9 -22 -22 -51 -29 -65 -59 -113 -82 -156 -87 -160 -3
-3 -11 -16 -18 -30 -7 -14 -21 -38 -32 -55 -11 -16 -23 -37 -27 -45 -6 -15
-34 -51 -74 -99 -18 -22 -21 -22 -38 -7 -23 21 -31 20 -31 -5 0 -11 4 -18 9
-14 5 3 12 1 15 -4 3 -5 -1 -11 -9 -15 -8 -3 -15 -1 -15 4 0 5 -18 8 -40 8
-38 0 -40 -2 -40 -32 0 -36 -41 -211 -64 -271 -47 -128 -181 -275 -251 -275
-8 0 -15 -6 -15 -13 0 -11 17 -13 78 -10 42 2 93 9 113 14 20 6 58 9 85 6 73
-8 245 -45 258 -56 6 -5 42 -15 79 -22 42 -8 67 -17 67 -26 0 -14 47 -30 57
-19 4 3 17 -1 29 -9 14 -9 25 -11 29 -5 3 6 1 10 -4 10 -19 0 -12 39 9 50 11
6 20 17 20 25 0 8 6 15 13 15 6 0 18 4 26 9 12 8 13 12 1 25 -17 21 -6 31 32
31 31 0 36 11 41 83 1 28 17 9 23 -28 7 -42 17 -50 31 -25 7 12 15 6 41 -27
l32 -42 0 36 c0 20 7 52 16 73 8 21 13 43 10 50 -9 23 7 25 19 2 9 -17 18 -21
47 -19 31 2 37 -1 42 -24 5 -17 12 -24 21 -20 8 3 15 1 15 -5 0 -5 11 -14 25
-21 13 -6 22 -15 19 -19 -3 -5 2 -20 11 -33 9 -14 14 -30 10 -36 -3 -5 0 -10
9 -10 8 0 16 6 19 13 2 7 8 8 13 3 5 -5 4 -11 -3 -13 -15 -6 -17 -39 -3 -48 6
-3 10 -14 10 -24 0 -10 9 -26 19 -35 11 -10 18 -28 16 -42 -2 -19 4 -28 21
-34 17 -7 24 -17 24 -35 0 -15 6 -25 15 -25 8 0 22 -11 31 -25 13 -20 20 -23
30 -14 8 6 21 8 30 5 13 -5 15 -2 11 14 -3 13 0 20 10 20 8 0 11 -5 8 -10 -4
-6 0 -22 9 -35 9 -13 16 -31 16 -40 0 -8 9 -15 20 -15 14 0 20 -7 20 -21 0
-17 5 -20 38 -17 25 2 36 7 34 17 -1 7 1 18 5 25 5 6 8 18 7 26 -1 8 -2 22 -3
31 0 9 -12 20 -25 23 -13 3 -31 9 -40 12 -12 5 -16 0 -16 -20 0 -26 15 -36 22
-14 3 7 12 9 22 5 11 -4 14 -12 10 -19 -5 -7 -7 -26 -5 -42 2 -18 -1 -26 -8
-22 -6 4 -11 16 -11 27 0 10 -5 19 -10 19 -24 0 -77 71 -66 89 3 5 -3 11 -13
14 -13 3 -18 1 -14 -9 3 -9 -3 -12 -23 -8 -15 3 -35 9 -43 14 -16 9 -14 10 37
26 7 2 15 12 19 21 10 27 21 31 64 23 33 -6 39 -5 35 7 -3 8 -6 18 -6 23 0 4
-11 11 -25 14 -13 3 -29 15 -35 26 -7 13 -21 20 -41 20 -26 0 -30 3 -27 23 2
14 11 23 25 25 12 2 24 10 27 18 3 9 1 12 -4 9 -6 -3 -10 -2 -10 3 0 5 9 12
20 15 49 13 1 60 -68 67 -40 4 -47 8 -50 29 -3 21 -1 23 23 17 17 -4 24 -3 20
4 -3 5 -21 10 -40 10 -28 0 -32 -3 -28 -19 6 -23 -15 -38 -23 -17 -4 10 -19
16 -40 16 -24 0 -34 5 -34 15 0 10 -10 15 -28 15 -16 0 -37 9 -47 20 -10 11
-33 22 -51 26 -19 3 -34 11 -34 18 0 7 -4 6 -9 -2 -7 -11 -9 -11 -14 1 -3 10
-14 13 -31 10 -15 -3 -26 -1 -26 6 0 6 -11 11 -24 11 -13 0 -29 7 -36 15 -7 8
-25 15 -40 15 -14 0 -30 3 -34 7 -4 4 -26 9 -48 10 -23 2 -48 9 -57 17 -18 15
-47 26 -89 31 -15 2 -27 4 -27 5 0 1 -11 3 -25 6 -14 2 -30 11 -35 18 -6 8
-22 14 -35 15 -84 2 -110 8 -133 31 -33 34 -38 54 -20 79 8 12 12 29 9 37 -3
9 3 28 14 44 11 15 20 32 20 37 0 5 19 24 42 43 22 19 54 47 71 62 41 38 89
52 150 43 28 -3 56 -10 62 -14 5 -5 29 -11 53 -14 24 -3 49 -12 55 -20 7 -8
30 -18 52 -22 21 -4 44 -13 50 -20 5 -7 36 -20 68 -29 32 -9 55 -21 52 -26 -4
-6 0 -10 7 -11 32 -2 53 -9 79 -28 16 -12 35 -21 44 -21 19 0 20 -19 0 -26
-19 -8 -20 -24 -1 -24 8 0 16 7 20 15 6 17 56 21 56 5 0 -15 42 -29 92 -31 57
-3 88 -15 88 -34 0 -11 6 -14 25 -9 15 4 25 2 25 -5 0 -6 3 -10 8 -9 12 4 72
-24 72 -33 0 -5 11 -7 24 -3 13 3 27 1 30 -5 4 -6 18 -11 32 -11 13 0 23 -5
21 -11 -1 -6 4 -14 11 -16 6 -3 12 0 12 6 0 6 5 11 11 11 5 0 8 -4 4 -9 -3 -5
4 -12 15 -16 11 -3 20 -14 20 -23 0 -11 3 -13 11 -5 12 12 49 6 49 -9 0 -5 -4
-7 -9 -3 -5 3 -12 1 -16 -5 -6 -9 13 -14 41 -11 7 1 14 -8 17 -20 3 -12 10
-18 16 -14 6 3 11 1 11 -5 0 -6 11 -15 24 -21 14 -7 22 -17 19 -25 -3 -8 3
-17 13 -21 10 -4 19 -2 22 5 4 14 32 16 32 3 0 -5 -4 -11 -10 -13 -5 -1 -7
-13 -4 -25 4 -13 11 -20 17 -16 22 14 62 7 65 -10 2 -12 -1 -15 -12 -11 -10 4
-13 0 -10 -14 4 -13 -3 -24 -20 -36 -36 -23 -32 -33 14 -33 22 0 46 -6 54 -12
8 -7 20 -10 26 -6 6 4 27 -3 46 -14 19 -12 43 -21 53 -21 14 0 17 -6 13 -25
-5 -27 15 -35 25 -10 3 9 13 15 22 13 9 -1 22 1 29 5 7 5 14 2 18 -7 7 -18 -3
-37 -19 -35 -33 4 -47 -2 -47 -21 0 -13 -9 -22 -25 -26 -21 -5 -23 -9 -13 -21
7 -8 23 -19 36 -24 14 -5 20 -14 16 -21 -5 -8 -2 -9 9 -5 10 3 17 2 17 -3 0
-6 -9 -10 -20 -10 -11 0 -19 -3 -19 -7 4 -25 -2 -35 -14 -25 -17 14 -57 4 -57
-14 0 -8 9 -14 20 -14 12 0 20 7 20 16 0 13 3 14 15 4 17 -14 35 -5 35 17 0
24 117 9 149 -20 17 -16 25 -18 28 -9 5 13 23 7 23 -8 0 -15 -27 -19 -83 -11
-51 7 -55 6 -46 -10 15 -28 -28 -36 -52 -10 -11 12 -25 21 -32 21 -16 0 -46
-20 -31 -20 13 0 23 -29 16 -48 -3 -10 -7 -10 -18 -1 -7 6 -21 9 -29 5 -9 -3
-15 0 -15 8 0 18 -50 67 -61 60 -5 -3 -2 -13 7 -22 11 -10 13 -17 5 -20 -16
-5 -14 -29 4 -36 8 -3 15 -15 15 -26 0 -11 7 -20 15 -20 8 0 14 6 13 13 -2 8
15 12 59 13 55 0 63 -2 72 -23 9 -19 8 -23 -5 -23 -8 0 -13 -4 -9 -9 3 -6 -15
-13 -39 -16 -31 -5 -43 -11 -40 -20 4 -8 -6 -16 -28 -20 -18 -4 -47 -16 -64
-26 -19 -11 -50 -19 -76 -19 -31 0 -54 -7 -73 -21 -20 -17 -29 -19 -35 -9 -4
7 -16 9 -28 6 -15 -5 -26 1 -44 24 -22 28 -27 30 -51 19 -37 -17 -43 -40 -15
-61 19 -15 20 -18 6 -18 -24 0 -23 -23 2 -45 18 -16 20 -16 20 -2 0 24 16 21
38 -8 11 -14 23 -25 26 -25 4 0 20 -16 37 -34 18 -21 36 -33 45 -29 8 3 14 0
14 -5 0 -6 -8 -12 -17 -14 -28 -5 57 -52 89 -49 18 1 32 -6 40 -19 7 -11 24
-20 38 -20 16 0 42 -16 72 -45 26 -25 58 -46 70 -48 13 -1 26 -9 29 -17 5 -11
10 -8 18 13 11 29 31 37 31 11 0 -9 9 -18 20 -21 17 -5 25 -16 18 -25 -1 -2
13 -19 31 -38 24 -27 34 -32 40 -21 9 13 51 7 51 -8 0 -4 9 -18 20 -31 11 -13
20 -29 20 -36 0 -7 17 -21 38 -31 20 -9 42 -23 47 -30 6 -7 23 -14 39 -15 18
-2 32 -10 38 -24 5 -11 24 -29 41 -39 18 -10 38 -27 45 -37 7 -10 24 -18 38
-18 14 0 24 -6 24 -14 0 -8 17 -20 38 -27 20 -7 42 -18 47 -26 6 -8 20 -19 31
-26 50 -28 104 -68 104 -75 0 -4 22 -21 50 -37 27 -17 50 -33 50 -37 0 -5 7
-8 15 -8 16 0 29 -9 63 -41 26 -25 61 -41 74 -33 7 4 8 3 4 -5 -4 -6 0 -14 8
-17 9 -3 16 -15 16 -25 0 -14 14 -26 43 -38 24 -11 57 -35 73 -54 36 -44 64
-55 132 -52 55 3 62 -3 35 -30 -16 -16 -16 -18 0 -27 9 -5 17 -18 17 -30 0
-25 27 -47 58 -48 12 0 22 -6 22 -15 0 -8 16 -19 40 -25 36 -10 45 -19 41 -42
0 -3 13 -9 29 -13 16 -3 47 -20 69 -36 23 -16 45 -29 51 -29 5 0 10 -8 10 -19
0 -10 7 -24 15 -31 8 -7 15 -18 15 -25 0 -20 36 -25 198 -25 l154 0 -7 52 c-4
29 -13 78 -21 109 -25 101 -56 530 -35 484 8 -17 10 -18 10 -2 1 9 6 17 11 17
6 0 10 11 10 25 0 14 5 25 10 25 6 0 10 -5 10 -11 0 -5 4 -8 9 -5 5 3 11 0 14
-7 3 -6 22 -21 43 -32 22 -11 45 -26 53 -34 8 -7 27 -18 43 -23 15 -6 26 -13
23 -18 -2 -4 11 -16 30 -26 19 -10 38 -26 41 -36 3 -9 11 -15 19 -12 7 3 18
-4 24 -15 6 -11 23 -26 39 -34 15 -7 26 -18 25 -24 -1 -5 14 -16 33 -23 20 -8
34 -21 34 -31 0 -10 11 -19 31 -23 31 -6 63 -27 121 -78 17 -16 35 -28 41 -28
5 0 20 -10 32 -23 12 -12 37 -33 54 -47 17 -14 39 -32 49 -40 18 -15 64 -47
94 -65 10 -5 36 -23 59 -40 42 -30 44 -30 191 -34 l148 -3 0 120 0 121 -35 33
c-19 18 -60 56 -91 83 -30 28 -78 71 -105 97 -28 27 -54 48 -58 48 -4 0 -17
10 -28 23 -12 12 -49 47 -84 77 -34 30 -79 72 -100 93 -21 20 -43 37 -49 37
-6 0 -8 4 -5 10 3 5 2 10 -4 10 -6 0 -27 15 -47 33 -82 73 -149 133 -174 157
-16 14 -55 50 -89 80 -34 30 -83 75 -110 100 -27 25 -68 61 -91 80 -23 19 -52
44 -65 55 -13 12 -38 32 -56 45 -18 14 -46 37 -63 53 -17 15 -33 27 -37 27 -3
0 -17 10 -31 23 -57 50 -164 127 -178 127 -5 0 -14 9 -20 20 -6 12 -21 25 -33
31 -12 5 -38 22 -58 37 -20 15 -65 47 -100 71 -35 24 -76 54 -92 65 -27 21
-87 67 -137 105 -47 36 -235 192 -285 236 -27 25 -74 66 -104 92 -30 27 -64
57 -75 68 -21 20 -81 71 -143 123 -18 15 -54 48 -80 75 -25 26 -50 47 -54 47
-5 0 -19 10 -33 23 -26 23 -51 44 -123 101 -23 19 -49 41 -58 50 -9 9 -20 16
-25 16 -9 0 -118 87 -156 126 -12 11 -37 27 -55 34 -32 14 -91 48 -116 70 -6
5 -33 20 -60 32 -26 13 -55 31 -65 41 -10 9 -23 17 -29 17 -6 0 -25 10 -42 23
-61 43 -230 137 -246 137 -6 0 -11 4 -11 9 0 5 -30 17 -67 27 -38 9 -72 21
-78 25 -5 4 -49 12 -97 18 -88 12 -205 2 -217 -17 -3 -5 -20 -13 -37 -16 -34
-8 -58 -30 -97 -91 -14 -22 -46 -61 -71 -87 -25 -26 -46 -52 -46 -57 0 -5 -9
-12 -19 -16 -11 -3 -21 -12 -24 -19 -4 -10 -19 -12 -54 -9 -59 6 -76 16 -161
93 -18 17 -39 30 -47 30 -8 0 -18 6 -22 13 -4 7 -22 19 -39 26 -17 6 -48 35
-70 64 -21 29 -50 63 -62 77 -13 14 -30 39 -37 55 l-14 30 -15 -40z m949 -615
c3 -5 1 -10 -4 -10 -6 0 -11 5 -11 10 0 6 2 10 4 10 3 0 8 -4 11 -10z m-1009
-247 c-10 -10 -19 5 -10 18 6 11 8 11 12 0 2 -7 1 -15 -2 -18z m468 -40 c8
-19 -14 -37 -28 -23 -10 10 -1 40 13 40 5 0 12 -8 15 -17z m36 -18 c0 -5 -5
-3 -10 5 -5 8 -10 20 -10 25 0 6 5 3 10 -5 5 -8 10 -19 10 -25z m34 -30 c-4
-8 -8 -15 -10 -15 -2 0 -4 7 -4 15 0 8 4 15 10 15 5 0 7 -7 4 -15z m-587 -57
c-2 -13 -4 -5 -4 17 -1 22 1 32 4 23 2 -10 2 -28 0 -40z m663 32 c0 -5 -7 -10
-15 -10 -8 0 -15 5 -15 10 0 6 7 10 15 10 8 0 15 -4 15 -10z m1050 0 c0 -5 -2
-10 -4 -10 -3 0 -8 5 -11 10 -3 6 -1 10 4 10 6 0 11 -4 11 -10z m-1660 -111
c0 -5 -4 -9 -10 -9 -5 0 -10 7 -10 16 0 8 5 12 10 9 6 -3 10 -10 10 -16z m33
-4 c-7 -21 -13 -19 -13 6 0 11 4 18 10 14 5 -3 7 -12 3 -20z m-66 -5 c-4 -17
0 -20 29 -20 19 0 34 -4 34 -10 0 -5 -10 -10 -22 -10 -13 0 -34 -3 -47 -7 -21
-5 -23 -3 -19 15 5 19 3 21 -19 15 -32 -7 -23 14 11 27 33 13 39 12 33 -10z
m1859 -87 c-4 -4 -11 -1 -16 7 -16 25 -11 35 7 17 9 -9 13 -20 9 -24z m-1041
-153 c3 -5 1 -10 -4 -10 -6 0 -11 5 -11 10 0 6 2 10 4 10 3 0 8 -4 11 -10z
m1165 -41 c0 -5 -4 -9 -10 -9 -5 0 -10 7 -10 16 0 8 5 12 10 9 6 -3 10 -10 10
-16z m-60 -29 c0 -5 -7 -10 -16 -10 -8 0 -12 5 -9 10 3 6 10 10 16 10 5 0 9
-4 9 -10z m108 -14 c3 -13 -1 -17 -14 -14 -11 2 -20 11 -22 22 -3 13 1 17 14
14 11 -2 20 -11 22 -22z m-178 0 c0 -2 3 -11 6 -20 6 -17 -19 -22 -50 -10 -12
5 -13 9 -3 20 11 12 47 20 47 10z m-370 -376 c0 -5 -4 -10 -10 -10 -5 0 -10 5
-10 10 0 6 5 10 10 10 6 0 10 -4 10 -10z m250 -125 c0 -8 -2 -15 -4 -15 -2 0
-6 7 -10 15 -3 8 -1 15 4 15 6 0 10 -7 10 -15z"/>
<path d="M4816 3295 c-4 -17 -12 -25 -24 -23 -14 2 -17 -6 -19 -47 -1 -27 3
-55 9 -62 7 -8 6 -28 -1 -63 -6 -28 -11 -56 -11 -63 1 -20 30 25 31 47 1 17 2
18 6 4 7 -26 19 -22 31 10 21 54 36 212 21 212 -5 0 -9 -17 -9 -37 0 -21 -4
-44 -9 -52 -13 -21 -24 20 -15 64 7 40 -1 48 -10 10z m-9 -77 c-3 -8 -6 -5 -6
6 -1 11 2 17 5 13 3 -3 4 -12 1 -19z"/>
<path d="M9883 3255 c0 -22 2 -30 4 -17 2 12 2 30 0 40 -3 9 -5 -1 -4 -23z"/>
<path d="M2016 3245 c10 -8 28 -14 39 -14 18 0 17 1 -5 14 -34 20 -60 20 -34
0z"/>
<path d="M4831 3244 c0 -11 3 -14 6 -6 3 7 2 16 -1 19 -3 4 -6 -2 -5 -13z"/>
<path d="M9792 3240 c0 -14 2 -19 5 -12 2 6 2 18 0 25 -3 6 -5 1 -5 -13z"/>
<path d="M5750 3242 c0 -7 -6 -12 -12 -12 -31 -1 -198 -189 -198 -222 0 -30
148 92 183 151 17 30 17 31 0 24 -12 -4 -9 4 11 25 16 18 26 35 23 39 -4 3 -7
1 -7 -5z m-72 -102 c-11 -18 -28 -27 -28 -16 0 6 30 36 36 36 2 0 -1 -9 -8
-20z"/>
<path d="M9836 3227 c3 -10 9 -15 12 -12 3 3 0 11 -7 18 -10 9 -11 8 -5 -6z"/>
<path d="M10000 3200 c0 -5 5 -10 10 -10 6 0 10 5 10 10 0 6 -4 10 -10 10 -5
0 -10 -4 -10 -10z"/>
<path d="M110 3185 c12 -15 30 -12 30 6 0 5 -10 9 -21 9 -18 0 -19 -2 -9 -15z"/>
<path d="M4870 3190 c0 -5 5 -10 10 -10 6 0 10 5 10 10 0 6 -4 10 -10 10 -5 0
-10 -4 -10 -10z"/>
<path d="M30 3160 c-12 -8 -10 -10 8 -10 13 0 20 4 17 10 -7 12 -6 12 -25 0z"/>
<path d="M9950 3160 c0 -5 5 -10 10 -10 6 0 10 5 10 10 0 6 -4 10 -10 10 -5 0
-10 -4 -10 -10z"/>
<path d="M80 3135 c0 -11 -11 -15 -40 -15 -29 0 -40 -4 -40 -15 0 -11 11 -15
39 -15 22 0 42 -5 44 -12 3 -8 6 -5 6 5 1 14 6 17 21 12 17 -5 20 -2 20 24 0
26 -4 31 -25 31 -16 0 -25 -6 -25 -15z"/>
<path d="M140 3141 c0 -22 13 -39 26 -34 22 8 17 43 -6 43 -11 0 -20 -4 -20
-9z"/>
<path d="M9772 3130 c0 -14 2 -19 5 -12 2 6 2 18 0 25 -3 6 -5 1 -5 -13z"/>
<path d="M9841 3134 c0 -11 3 -14 6 -6 3 7 2 16 -1 19 -3 4 -6 -2 -5 -13z"/>
<path d="M9900 3110 c0 -5 5 -10 10 -10 6 0 10 5 10 10 0 6 -4 10 -10 10 -5 0
-10 -4 -10 -10z"/>
<path d="M2505 3090 c3 -5 8 -10 11 -10 2 0 4 5 4 10 0 6 -5 10 -11 10 -5 0
-7 -4 -4 -10z"/>
<path d="M4731 3084 c0 -11 3 -14 6 -6 3 7 2 16 -1 19 -3 4 -6 -2 -5 -13z"/>
<path d="M9980 3090 c0 -5 5 -10 10 -10 6 0 10 5 10 10 0 6 -4 10 -10 10 -5 0
-10 -4 -10 -10z"/>
<path d="M2960 3040 c0 -19 3 -21 12 -12 9 9 9 15 0 24 -9 9 -12 7 -12 -12z"/>
<path d="M5400 3042 c0 -5 7 -13 16 -16 10 -4 14 -1 12 6 -5 15 -28 23 -28 10z"/>
<path d="M9935 3040 c-3 -5 -1 -10 4 -10 6 0 11 5 11 10 0 6 -2 10 -4 10 -3 0
-8 -4 -11 -10z"/>
<path d="M8950 2992 c0 -13 50 -45 58 -38 3 3 1 6 -4 6 -6 0 -20 9 -32 20 -12
12 -22 17 -22 12z"/>
<path d="M2440 2942 c0 -4 10 -13 23 -21 22 -14 22 -14 3 8 -20 22 -26 25 -26
13z"/>
<path d="M9020 2931 c0 -5 7 -11 14 -14 10 -4 13 -1 9 9 -6 15 -23 19 -23 5z"/>
<path d="M6860 2906 c0 -2 7 -7 16 -10 8 -3 12 -2 9 4 -6 10 -25 14 -25 6z"/>
<path d="M5325 2859 c-10 -15 3 -25 16 -12 7 7 7 13 1 17 -6 3 -14 1 -17 -5z"/>
<path d="M6962 2834 c10 -10 20 -15 24 -12 3 4 -5 12 -18 18 -22 12 -22 12 -6
-6z"/>
<path d="M7017 2791 c24 -23 33 -26 33 -13 0 5 -12 14 -27 21 l-28 13 22 -21z"/>
<path d="M7102 2725 c23 -19 50 -42 59 -50 9 -8 18 -15 22 -15 3 0 17 -10 30
-22 49 -46 80 -69 85 -63 3 3 -3 12 -14 19 -10 8 -30 24 -44 36 -14 12 -38 31
-53 43 -16 12 -47 37 -69 55 -22 17 -44 32 -50 32 -5 0 10 -16 34 -35z"/>
<path d="M9910 2731 c0 -6 5 -13 10 -16 6 -3 10 1 10 9 0 9 -4 16 -10 16 -5 0
-10 -4 -10 -9z"/>
<path d="M0 2677 c0 -38 12 -47 61 -47 17 0 38 -4 48 -9 10 -6 64 -12 120 -16
62 -3 114 -11 132 -21 16 -8 33 -13 38 -10 4 3 30 -1 57 -9 27 -8 76 -21 109
-31 94 -25 149 -45 155 -53 8 -12 71 -41 90 -41 9 0 21 -5 27 -11 12 -12 52
-34 138 -78 90 -47 135 -72 196 -113 62 -42 69 -44 69 -24 0 8 -15 23 -32 35
-80 51 -94 60 -104 69 -6 6 -29 19 -50 29 -21 11 -73 38 -115 60 -42 22 -89
43 -105 47 -16 4 -36 14 -44 21 -8 8 -38 20 -65 27 -28 7 -61 20 -74 30 -13
10 -28 18 -33 18 -5 0 -33 11 -61 24 -47 21 -178 62 -282 88 -22 5 -55 14 -74
20 -24 7 -35 7 -40 -1 -5 -8 -16 -7 -37 3 -16 8 -50 18 -76 21 l-48 7 0 -35z"/>
<path d="M8930 2687 c0 -21 22 -37 50 -36 l25 0 -22 11 c-13 6 -23 14 -23 18
0 5 -7 10 -15 14 -8 3 -15 0 -15 -7z"/>
<path d="M5750 2650 c0 -5 5 -10 10 -10 6 0 10 5 10 10 0 6 -4 10 -10 10 -5 0
-10 -4 -10 -10z"/>
<path d="M5800 2635 c0 -8 5 -15 10 -15 6 0 10 7 10 15 0 8 -4 15 -10 15 -5 0
-10 -7 -10 -15z"/>
<path d="M9200 2646 c0 -2 7 -9 15 -16 9 -7 15 -8 15 -2 0 5 -7 12 -15 16 -8
3 -15 4 -15 2z"/>
<path d="M4 2539 c-3 -6 -3 -13 1 -17 11 -12 179 -31 194 -22 9 5 -5 10 -40
15 -30 4 -61 11 -69 15 -29 14 -79 19 -86 9z"/>
<path d="M9836 2537 c3 -10 9 -15 12 -12 3 3 0 11 -7 18 -10 9 -11 8 -5 -6z"/>
<path d="M5705 2530 c3 -5 8 -10 11 -10 2 0 4 5 4 10 0 6 -5 10 -11 10 -5 0
-7 -4 -4 -10z"/>
<path d="M6040 2520 c0 -5 5 -10 10 -10 6 0 10 5 10 10 0 6 -4 10 -10 10 -5 0
-10 -4 -10 -10z"/>
<path d="M300 2480 c-13 -8 -12 -10 3 -10 9 0 17 5 17 10 0 12 -1 12 -20 0z"/>
<path d="M4287 2483 c-4 -3 -7 -11 -7 -17 0 -6 5 -5 12 2 6 6 9 14 7 17 -3 3
-9 2 -12 -2z"/>
<path d="M7405 2480 c3 -5 8 -10 11 -10 2 0 4 5 4 10 0 6 -5 10 -11 10 -5 0
-7 -4 -4 -10z"/>
<path d="M9900 2480 c0 -5 5 -10 11 -10 5 0 7 5 4 10 -3 6 -8 10 -11 10 -2 0
-4 -4 -4 -10z"/>
<path d="M5938 2472 c-10 -2 -18 -8 -18 -13 0 -5 -8 -9 -17 -10 -11 0 -13 -3
-5 -6 17 -7 15 -23 -3 -23 -13 0 -12 -5 5 -28 17 -23 27 -27 51 -24 34 5 35
10 10 56 -14 25 -16 36 -8 39 18 6 5 14 -15 9z"/>
<path d="M0 2460 c0 -5 10 -10 23 -10 18 0 19 2 7 10 -19 13 -30 13 -30 0z"/>
<path d="M6003 2417 c0 -20 4 -34 8 -31 4 2 10 -4 13 -13 3 -10 3 0 1 21 -6
52 -23 70 -22 23z"/>
<path d="M6040 2436 c0 -9 5 -16 10 -16 6 0 10 4 10 9 0 6 -4 13 -10 16 -5 3
-10 -1 -10 -9z"/>
<path d="M5865 2380 c3 -5 8 -10 11 -10 2 0 4 5 4 10 0 6 -5 10 -11 10 -5 0
-7 -4 -4 -10z"/>
<path d="M0 2344 c0 -20 9 -23 136 -39 65 -9 131 -22 148 -29 17 -8 47 -17 66
-20 19 -3 45 -8 58 -12 13 -4 22 -2 22 5 0 6 -7 11 -16 11 -8 0 -22 6 -30 14
-8 8 -48 20 -89 27 -52 9 -75 17 -75 27 0 10 -7 13 -21 9 -12 -3 -33 -1 -48 5
-41 17 -151 19 -151 2z"/>
<path d="M6340 2345 c7 -9 15 -13 17 -11 7 7 -7 26 -19 26 -6 0 -6 -6 2 -15z"/>
<path d="M5880 2319 c0 -5 5 -7 10 -4 6 3 10 8 10 11 0 2 -4 4 -10 4 -5 0 -10
-5 -10 -11z"/>
<path d="M0 2213 c0 -26 11 -37 52 -56 21 -10 41 -24 45 -31 4 -7 28 -16 53
-19 25 -3 58 -10 73 -16 38 -15 47 -14 47 4 0 8 -6 15 -13 15 -7 0 -13 9 -14
21 -2 17 2 20 20 15 12 -3 34 -6 50 -6 20 0 30 -7 37 -25 8 -22 13 -24 29 -15
13 7 22 7 26 0 3 -5 15 -10 26 -10 10 0 27 -8 38 -19 10 -10 35 -24 54 -30 20
-7 38 -17 40 -24 3 -9 8 -9 18 1 11 10 10 12 -3 12 -9 0 -19 7 -22 16 -5 12
-2 15 11 9 10 -4 27 -9 38 -12 36 -8 129 -57 193 -100 35 -24 67 -43 71 -43 4
0 30 -21 56 -46 27 -25 60 -54 74 -65 14 -11 76 -67 136 -124 108 -101 164
-178 152 -209 -6 -14 -56 -30 -152 -46 -27 -5 -70 -13 -95 -17 l-44 -8 37 -37
c20 -21 37 -40 37 -43 0 -3 18 -24 40 -46 22 -22 40 -45 40 -49 0 -12 46 -20
150 -25 69 -3 219 -31 186 -34 -5 -1 -3 -7 3 -15 6 -8 10 -20 9 -26 -2 -7 12
-17 29 -22 43 -11 55 -34 62 -116 0 -7 5 -11 10 -8 5 3 11 -4 14 -16 5 -17 9
-19 21 -9 12 10 17 9 25 -7 6 -11 8 -22 5 -25 -3 -3 6 -23 20 -44 14 -20 26
-48 26 -60 0 -12 16 -38 35 -59 19 -20 35 -41 35 -45 0 -14 28 -11 34 4 3 7
20 -4 45 -33 l40 -44 10 24 c5 14 10 20 10 13 1 -7 13 -18 28 -25 17 -9 31
-27 39 -53 45 -150 57 -196 66 -245 5 -30 9 -64 9 -75 0 -11 4 -22 9 -25 9 -6
37 -130 42 -190 2 -23 8 -35 18 -35 8 0 14 7 12 15 -2 8 -16 81 -32 163 -16
81 -36 162 -44 179 -9 17 -16 46 -16 63 0 28 -15 82 -37 135 -3 8 -7 22 -9 30
-2 8 -6 28 -10 44 -5 22 -4 28 7 24 16 -5 89 -144 89 -170 0 -9 4 -19 10 -23
13 -8 30 -68 40 -145 9 -68 29 -174 38 -200 2 -8 7 -33 9 -55 6 -65 7 -65 79
-65 59 0 65 2 59 18 -3 9 -9 31 -12 47 -3 17 -14 47 -24 67 -11 21 -19 42 -19
48 0 5 -8 29 -18 53 -11 23 -27 67 -37 97 -10 30 -27 71 -37 90 -10 19 -18 42
-18 52 0 9 -4 19 -9 22 -4 3 -14 27 -21 53 -12 45 -69 179 -90 213 -5 8 -18
33 -29 55 -11 22 -31 57 -45 78 -14 21 -26 40 -26 43 0 4 -63 89 -92 124 -7 8
-23 30 -36 50 -13 19 -29 40 -36 45 -6 6 -23 26 -36 45 -60 86 -236 280 -255
280 -11 1 -85 67 -85 76 0 4 -26 30 -57 58 -32 28 -72 65 -89 81 -18 17 -45
40 -61 53 -15 12 -47 38 -71 57 -23 18 -51 37 -62 40 -11 4 -20 11 -20 16 0 5
-19 18 -43 28 -23 10 -48 25 -55 34 -8 9 -28 19 -45 23 -18 3 -43 15 -56 25
-13 11 -31 19 -41 19 -9 0 -27 9 -40 20 -13 11 -28 20 -34 20 -7 0 -29 9 -49
19 -21 11 -57 22 -80 26 -57 9 -117 27 -117 35 0 3 -35 12 -77 19 -43 7 -91
20 -108 28 -16 8 -65 18 -107 24 -42 5 -93 16 -112 24 -48 20 -76 19 -76 -2z
m535 -144 c5 -5 1 -9 -12 -9 -11 0 -27 7 -34 16 -12 15 -11 16 11 9 14 -4 29
-11 35 -16z m1225 -1121 c0 -19 -2 -20 -10 -8 -13 19 -13 30 0 30 6 0 10 -10
10 -22z m39 -95 c12 -43 4 -64 -16 -38 -15 21 -18 75 -3 75 5 0 14 -16 19 -37z"/>
<path d="M5265 2221 c-3 -5 -1 -12 5 -16 5 -3 10 1 10 9 0 18 -6 21 -15 7z"/>
<path d="M6366 2215 c-3 -9 0 -15 9 -15 9 0 12 6 9 15 -4 8 -7 15 -9 15 -2 0
-5 -7 -9 -15z"/>
<path d="M6487 2203 c-4 -3 -7 -16 -6 -27 0 -12 3 -15 6 -8 2 6 9 10 14 6 5
-3 9 4 9 15 0 21 -11 27 -23 14z"/>
<path d="M1270 2185 c0 -15 58 -60 67 -52 3 3 -3 17 -14 31 -21 28 -53 41 -53
21z"/>
<path d="M9923 2136 c33 -31 63 -56 68 -56 5 0 9 -7 9 -15 0 -8 5 -15 10 -15
21 0 9 36 -18 52 -15 9 -49 33 -77 53 l-50 37 58 -56z"/>
<path d="M3235 2160 c3 -5 8 -10 11 -10 2 0 4 5 4 10 0 6 -5 10 -11 10 -5 0
-7 -4 -4 -10z"/>
<path d="M0 2141 c0 -5 5 -13 10 -16 5 -3 10 -2 10 4 0 5 -4 13 -10 16 -5 3
-10 2 -10 -4z"/>
<path d="M4343 2123 c9 -2 23 -2 30 0 6 3 -1 5 -18 5 -16 0 -22 -2 -12 -5z"/>
<path d="M6490 2120 c0 -5 5 -10 11 -10 5 0 7 5 4 10 -3 6 -8 10 -11 10 -2 0
-4 -4 -4 -10z"/>
<path d="M1366 2105 c4 -8 12 -15 20 -15 20 0 17 7 -6 20 -16 9 -18 8 -14 -5z"/>
<path d="M6325 2100 c3 -5 8 -10 11 -10 2 0 4 5 4 10 0 6 -5 10 -11 10 -5 0
-7 -4 -4 -10z"/>
<path d="M0 1962 l0 -138 35 -17 c20 -9 46 -17 59 -17 13 0 29 -7 36 -15 17
-21 30 -19 30 6 0 11 5 17 10 14 15 -9 12 -20 -15 -49 -41 -44 -25 -60 57 -53
39 3 76 11 83 17 17 14 117 11 127 -4 13 -19 17 -1 8 38 -4 21 -18 47 -29 57
-12 11 -21 24 -21 29 0 12 -132 140 -144 140 -5 0 -29 15 -55 33 -26 19 -60
37 -76 42 -17 5 -33 9 -37 10 -5 2 -14 3 -22 4 -8 0 -18 10 -21 21 -16 51 -25
10 -25 -118z"/>
<path d="M3283 2074 c9 -11 17 -27 17 -35 1 -17 39 -88 40 -73 0 21 -40 101
-57 115 -17 13 -17 13 0 -7z"/>
<path d="M6558 2083 c7 -3 16 -2 19 1 4 3 -2 6 -13 5 -11 0 -14 -3 -6 -6z"/>
<path d="M4358 2023 c6 -2 18 -2 25 0 6 3 1 5 -13 5 -14 0 -19 -2 -12 -5z"/>
<path d="M6012 2019 c2 -6 8 -10 13 -10 5 0 11 4 13 10 2 6 -4 11 -13 11 -9 0
-15 -5 -13 -11z"/>
<path d="M6602 2018 c6 -18 28 -21 28 -4 0 9 -7 16 -16 16 -9 0 -14 -5 -12
-12z"/>
<path d="M6188 1968 c17 -8 26 -8 34 0 9 9 4 12 -22 11 -33 0 -34 -1 -12 -11z"/>
<path d="M6050 1949 c0 -5 5 -7 10 -4 6 3 10 8 10 11 0 2 -4 4 -10 4 -5 0 -10
-5 -10 -11z"/>
<path d="M4433 1933 c20 -2 54 -2 75 0 20 2 3 4 -38 4 -41 0 -58 -2 -37 -4z"/>
<path d="M6157 1933 c-11 -11 -8 -20 9 -27 21 -8 34 1 27 19 -5 16 -25 20 -36
8z"/>
<path d="M6270 1820 c0 -5 5 -10 10 -10 6 0 10 5 10 10 0 6 -4 10 -10 10 -5 0
-10 -4 -10 -10z"/>
<path d="M6458 1793 c7 -3 16 -2 19 1 4 3 -2 6 -13 5 -11 0 -14 -3 -6 -6z"/>
<path d="M3401 1768 c0 -15 4 -30 9 -33 6 -3 10 -16 11 -28 0 -13 3 -16 6 -9
3 8 1 24 -5 35 -6 12 -13 31 -15 42 -4 15 -5 13 -6 -7z"/>
<path d="M6526 1773 c-3 -10 -9 -24 -12 -30 -4 -9 3 -13 21 -13 23 0 25 3 20
23 -10 33 -21 41 -29 20z"/>
<path d="M6200 1765 c0 -8 7 -15 15 -15 8 0 15 7 15 15 0 8 -7 15 -15 15 -8 0
-15 -7 -15 -15z"/>
<path d="M6445 1740 c-7 -12 11 -40 26 -40 14 0 10 26 -5 39 -10 9 -16 9 -21
1z"/>
<path d="M9680 1740 c0 -5 3 -10 8 -10 4 0 32 -31 62 -70 30 -38 57 -70 60
-70 3 0 17 -10 31 -23 15 -12 45 -38 68 -57 23 -19 53 -45 67 -57 31 -28 34
-28 27 -4 -5 21 -186 209 -238 248 -77 58 -85 62 -85 43z"/>
<path d="M554 1683 c6 -47 21 -67 43 -58 15 5 124 -48 142 -69 18 -22 31 -20
31 3 0 11 -9 23 -21 26 -19 6 -91 67 -145 123 -11 12 -29 22 -39 22 -15 0 -17
-6 -11 -47z"/>
<path d="M100 1689 c0 -5 5 -7 10 -4 6 3 10 8 10 11 0 2 -4 4 -10 4 -5 0 -10
-5 -10 -11z"/>
<path d="M4730 1678 c19 -5 40 -16 46 -24 6 -7 26 -17 45 -20 l34 -7 -25 19
c-36 28 -77 44 -108 43 -25 -1 -24 -2 8 -11z"/>
<path d="M4885 1660 c-3 -5 1 -10 10 -10 9 0 13 5 10 10 -3 6 -8 10 -10 10 -2
0 -7 -4 -10 -10z"/>
<path d="M3431 1645 c0 -11 4 -27 9 -35 9 -13 10 -13 9 0 0 8 -4 24 -9 35 l-9
20 0 -20z"/>
<path d="M4593 1633 c9 -2 25 -2 35 0 9 3 1 5 -18 5 -19 0 -27 -2 -17 -5z"/>
<path d="M4921 1636 c6 -7 127 -66 133 -66 3 0 6 4 6 8 0 11 -104 62 -126 62
-10 0 -15 -2 -13 -4z"/>
<path d="M3456 1555 c2 -22 9 -103 15 -180 6 -77 15 -141 20 -143 5 -2 9 -11
10 -20 1 -28 18 19 17 48 0 23 -1 22 -8 -5 -7 -27 -8 -26 -9 15 -2 69 -20 209
-36 270 -11 44 -13 47 -9 15z"/>
<path d="M4740 1580 c0 -14 30 -27 80 -33 25 -4 36 -3 25 1 -11 5 -37 16 -57
25 -43 20 -48 20 -48 7z"/>
<path d="M4880 1563 c0 -10 48 -32 54 -25 7 7 -25 31 -41 32 -7 0 -13 -3 -13
-7z"/>
<path d="M5070 1565 c0 -2 14 -11 30 -20 33 -17 40 -10 13 11 -18 13 -43 19
-43 9z"/>
<path d="M4986 1505 c15 -14 30 -25 33 -26 3 0 22 -2 41 -5 l35 -4 -27 14
c-15 8 -38 22 -50 30 -12 9 -31 16 -41 16 -15 0 -14 -4 9 -25z"/>
<path d="M5165 1516 c11 -8 25 -20 32 -26 7 -5 16 -10 21 -10 5 0 17 -9 26
-19 10 -11 30 -22 44 -26 15 -4 35 -14 45 -22 11 -10 17 -12 17 -4 0 6 -16 19
-35 28 -19 9 -35 20 -35 24 0 3 -15 12 -32 19 -18 7 -38 18 -43 25 -6 7 -21
15 -35 19 -24 7 -24 7 -5 -8z"/>
<path d="M5100 1460 c0 -5 5 -10 11 -10 5 0 7 -5 3 -12 -4 -7 -3 -8 4 -4 6 4
9 13 5 21 -6 17 -23 20 -23 5z"/>
<path d="M5137 1426 c-8 -19 13 -35 54 -41 19 -3 29 -3 22 1 -7 3 -10 11 -7
19 6 15 0 20 -37 29 -19 4 -29 1 -32 -8z"/>
<path d="M3512 1390 c0 -14 2 -19 5 -12 2 6 2 18 0 25 -3 6 -5 1 -5 -13z"/>
<path d="M5390 1378 c54 -37 60 -40 60 -30 0 12 -37 37 -70 47 -20 6 -18 3 10
-17z"/>
<path d="M5231 1374 c-7 -8 -11 -17 -10 -18 13 -11 71 -36 84 -36 8 0 14 -4
13 -9 -4 -12 56 -56 105 -77 20 -9 37 -20 37 -25 0 -5 8 -9 18 -9 10 0 23 -5
30 -12 7 -7 12 -8 12 -3 0 5 7 -1 16 -13 11 -16 22 -21 36 -16 14 4 18 2 14
-5 -4 -6 -3 -11 2 -11 5 0 15 -11 22 -25 12 -23 44 -42 62 -37 4 1 22 -7 40
-18 18 -11 47 -27 63 -36 17 -9 44 -30 62 -46 17 -17 36 -27 42 -23 12 7 -35
57 -72 77 -12 6 -26 15 -31 20 -6 5 -40 27 -76 50 -36 23 -67 44 -70 47 -3 3
-23 15 -45 26 -22 11 -44 26 -50 33 -5 6 -24 20 -42 30 -17 9 -56 33 -85 53
-70 47 -154 99 -159 99 -2 -1 -10 -8 -18 -16z"/>
<path d="M5035 1360 c3 -5 8 -10 11 -10 2 0 4 5 4 10 0 6 -5 10 -11 10 -5 0
-7 -4 -4 -10z"/>
<path d="M3512 1335 c0 -16 2 -22 5 -12 2 9 2 23 0 30 -3 6 -5 -1 -5 -18z"/>
<path d="M5510 1305 c7 -9 15 -13 17 -11 7 7 -7 26 -19 26 -6 0 -6 -6 2 -15z"/>
<path d="M5580 1260 c0 -5 5 -10 10 -10 6 0 10 5 10 10 0 6 -4 10 -10 10 -5 0
-10 -4 -10 -10z"/>
<path d="M5665 1210 c-3 -5 -1 -10 4 -10 6 0 11 5 11 10 0 6 -2 10 -4 10 -3 0
-8 -4 -11 -10z"/>
<path d="M0 1057 l0 -124 40 -13 c22 -7 40 -19 40 -27 0 -7 8 -13 19 -13 10 0
30 -11 45 -25 15 -14 38 -25 52 -25 13 0 47 -16 75 -35 28 -19 56 -35 63 -35
7 0 6 -4 -2 -9 -10 -6 -7 -11 15 -19 15 -5 53 -34 84 -63 31 -30 72 -68 93
-86 20 -18 36 -39 36 -47 0 -8 9 -18 20 -21 11 -3 20 -12 20 -20 0 -7 14 -23
31 -35 16 -12 27 -25 24 -28 -3 -3 6 -18 20 -32 31 -30 73 -89 81 -112 4 -10
10 -18 14 -18 5 0 11 -13 15 -30 4 -16 11 -30 16 -30 5 0 9 -6 9 -14 0 -20 45
-113 65 -136 9 -10 14 -23 11 -28 -10 -16 34 -22 174 -22 149 0 175 7 147 38
-9 10 -17 28 -17 39 0 11 -10 24 -24 31 -16 7 -26 22 -30 47 -4 20 -14 39 -22
42 -8 3 -14 18 -14 34 0 22 -5 29 -20 29 -11 0 -20 6 -20 14 0 7 -7 19 -15 26
-9 7 -14 19 -11 25 2 7 -4 18 -15 26 -10 7 -19 19 -19 26 0 7 -9 18 -20 25
-11 7 -20 18 -20 24 0 6 -9 19 -20 29 -11 10 -20 22 -20 26 0 5 -18 27 -40 49
-22 22 -40 43 -40 46 0 14 -306 294 -322 294 -3 0 -13 6 -20 13 -28 25 -97 77
-104 77 -4 0 -21 11 -39 24 -17 13 -47 31 -66 40 -39 19 -109 60 -125 74 -6 5
-21 13 -35 17 -13 4 -40 18 -59 31 -66 45 -70 40 -70 -99z"/>
<path d="M3324 995 c-44 -41 -55 -58 -47 -66 9 -9 18 -4 38 20 15 17 31 29 36
25 5 -3 9 0 9 5 0 6 3 10 8 10 4 -1 14 -1 22 0 13 1 13 2 0 11 -8 5 -12 10 -7
11 4 1 12 3 17 4 6 1 13 3 16 4 6 1 -22 31 -29 31 -3 0 -31 -25 -63 -55z"/>
<path d="M3445 990 c3 -5 8 -10 11 -10 2 0 4 5 4 10 0 6 -5 10 -11 10 -5 0 -7
-4 -4 -10z"/>
<path d="M3410 950 c-6 -11 -7 -20 -3 -20 5 0 14 9 21 20 7 11 8 20 2 20 -5 0
-14 -9 -20 -20z"/>
<path d="M5890 944 l-25 -15 29 3 c16 2 31 9 34 16 5 15 -6 14 -38 -4z"/>
<path d="M6030 950 c0 -5 5 -10 10 -10 6 0 10 5 10 10 0 6 -4 10 -10 10 -5 0
-10 -4 -10 -10z"/>
<path d="M3330 939 c0 -5 5 -7 10 -4 6 3 10 8 10 11 0 2 -4 4 -10 4 -5 0 -10
-5 -10 -11z"/>
<path d="M5947 910 c7 -26 43 -48 43 -26 0 16 -26 46 -40 46 -4 0 -6 -9 -3
-20z"/>
<path d="M3365 899 c-11 -17 1 -21 15 -4 8 9 8 15 2 15 -6 0 -14 -5 -17 -11z"/>
<path d="M6112 898 c2 -6 13 -16 23 -22 10 -6 28 -19 39 -28 11 -10 25 -18 30
-18 6 1 0 10 -14 21 -14 10 -36 28 -48 39 -27 23 -35 25 -30 8z"/>
<path d="M6008 873 c7 -3 16 -2 19 1 4 3 -2 6 -13 5 -11 0 -14 -3 -6 -6z"/>
<path d="M6059 840 c30 -26 46 -26 24 0 -10 11 -24 20 -33 20 -11 -1 -8 -6 9
-20z"/>
<path d="M1520 801 c0 -13 8 -17 50 -26 l35 -7 -19 21 c-19 21 -66 29 -66 12z"/>
<path d="M1614 796 c-4 -9 5 -25 22 -41 30 -28 33 -29 54 -15 13 8 13 13 -2
37 -19 32 -65 44 -74 19z"/>
<path d="M6112 799 c2 -7 10 -15 17 -17 8 -3 12 1 9 9 -2 7 -10 15 -17 17 -8
3 -12 -1 -9 -9z"/>
<path d="M3360 779 c0 -5 5 -7 10 -4 6 3 10 8 10 11 0 2 -4 4 -10 4 -5 0 -10
-5 -10 -11z"/>
<path d="M3338 753 c7 -3 16 -2 19 1 4 3 -2 6 -13 5 -11 0 -14 -3 -6 -6z"/>
<path d="M6318 753 c7 -3 16 -2 19 1 4 3 -2 6 -13 5 -11 0 -14 -3 -6 -6z"/>
<path d="M4480 739 c0 -5 -3 -8 -7 -8 -21 3 -33 -2 -33 -16 0 -17 -50 -45 -80
-45 -23 0 -26 -12 -7 -28 49 -41 348 -49 334 -9 -2 6 -22 21 -45 32 -23 11
-52 30 -64 41 -26 23 -98 47 -98 33z"/>
<path d="M6210 732 c0 -11 36 -40 76 -63 28 -15 34 -16 34 -4 0 8 -7 15 -15
15 -8 0 -15 6 -15 14 0 7 -8 16 -17 20 -10 3 -28 10 -40 16 -13 5 -23 6 -23 2z"/>
<path d="M6345 724 c11 -8 30 -24 43 -34 12 -11 28 -20 36 -20 7 0 21 -9 31
-20 10 -11 20 -18 23 -16 8 8 -64 71 -102 89 -45 21 -58 22 -31 1z"/>
<path d="M3980 651 c-35 -10 -10 -22 29 -15 17 4 28 10 25 15 -6 10 -18 10
-54 0z"/>
<path d="M6336 651 c-3 -5 8 -20 26 -32 18 -13 35 -26 38 -30 6 -7 46 -29 55
-29 15 0 -38 59 -58 66 -12 3 -29 13 -39 21 -10 9 -18 10 -22 4z"/>
<path d="M4048 623 c6 -2 18 -2 25 0 6 3 1 5 -13 5 -14 0 -19 -2 -12 -5z"/>
<path d="M6544 598 c-4 -5 0 -14 7 -19 20 -12 26 -11 26 6 0 18 -24 28 -33 13z"/>
<path d="M3623 593 c-27 -5 -30 -18 -7 -27 27 -10 48 -6 74 14 20 16 22 20 8
20 -10 0 -18 -4 -18 -10 0 -5 -10 -10 -22 -10 -19 0 -20 2 -8 10 15 10 11 10
-27 3z"/>
<path d="M6590 560 c0 -6 11 -16 25 -22 14 -6 25 -14 25 -17 0 -4 18 -17 40
-31 22 -14 40 -28 40 -32 0 -5 7 -8 15 -8 8 0 15 3 15 7 0 11 -63 63 -77 63
-7 0 -16 6 -20 14 -8 12 -45 36 -57 36 -3 0 -6 -5 -6 -10z"/>
<path d="M6480 551 c0 -10 30 -24 37 -17 3 2 -5 9 -16 16 -12 6 -21 7 -21 1z"/>
<path d="M1870 486 c0 -13 16 -73 35 -133 19 -59 42 -139 50 -178 29 -139 38
-160 69 -163 16 -2 39 -1 51 2 25 6 25 4 -11 130 -8 26 -14 56 -14 66 0 10 -8
20 -18 22 -14 4 -21 19 -26 59 -4 30 -7 66 -7 81 1 16 -6 45 -14 65 -13 30
-18 35 -25 23 -5 -8 -10 -25 -10 -37 0 -24 -18 -32 -24 -10 -2 6 -9 31 -15 55
-13 46 -41 59 -41 18z"/>
<path d="M3625 470 c-3 -5 -2 -10 4 -10 5 0 13 5 16 10 3 6 2 10 -4 10 -5 0
-13 -4 -16 -10z"/>
<path d="M4552 461 c7 -11 14 -19 17 -19 4 1 23 -6 43 -15 21 -10 42 -17 48
-17 5 0 10 -4 10 -10 0 -5 15 -18 33 -27 57 -31 137 -86 137 -94 0 -5 5 -9 10
-9 10 0 98 -56 127 -80 7 -6 32 -19 56 -29 23 -10 48 -26 56 -35 7 -9 18 -16
23 -16 6 0 26 -14 45 -30 18 -17 40 -30 48 -30 8 0 18 -6 22 -14 4 -7 25 -16
46 -20 l39 -7 -18 24 c-18 24 -29 32 -104 79 -19 12 -37 26 -38 30 -2 5 -18
15 -35 23 -28 13 -82 49 -112 73 -12 10 -153 87 -210 116 -22 11 -51 28 -64
38 -13 10 -30 18 -37 18 -7 0 -24 11 -38 25 -17 17 -36 25 -61 25 -19 0 -35 5
-35 10 0 6 -5 10 -10 10 -6 0 -5 -8 2 -19z"/>
<path d="M4133 446 c10 -8 48 -21 84 -30 36 -10 75 -24 87 -31 11 -8 30 -15
43 -15 12 0 25 -4 28 -10 9 -15 35 -12 29 3 -4 12 -52 37 -84 43 -46 9 -89 23
-117 37 -18 10 -45 17 -60 17 -26 -1 -27 -2 -10 -14z"/>
<path d="M6690 401 c19 -16 37 -27 40 -25 5 6 -52 53 -65 54 -5 0 6 -13 25
-29z"/>
<path d="M4500 315 c0 -7 63 -45 74 -45 5 0 -3 11 -18 25 -24 22 -56 34 -56
20z"/>
<path d="M5742 254 c1 -10 15 -21 30 -25 24 -6 26 -5 19 15 -10 27 -54 36 -49
10z"/>
<path d="M5825 210 c3 -5 8 -10 11 -10 2 0 4 5 4 10 0 6 -5 10 -11 10 -5 0 -7
-4 -4 -10z"/>
<path d="M7035 159 c-7 -11 19 -35 47 -42 23 -7 12 18 -17 37 -16 11 -26 12
-30 5z"/>
<path d="M1710 40 c0 -13 7 -20 20 -20 18 0 19 3 10 20 -6 11 -15 20 -20 20
-6 0 -10 -9 -10 -20z"/>
<path d="M7203 35 c0 -9 10 -15 24 -15 22 0 23 2 9 15 -8 8 -19 15 -24 15 -5
0 -9 -7 -9 -15z"/>
<path d="M6033 23 c9 -2 25 -2 35 0 9 3 1 5 -18 5 -19 0 -27 -2 -17 -5z"/>
</g>
</svg>
